%TF.GenerationSoftware,KiCad,Pcbnew,(5.1.6)-1*%
%TF.CreationDate,2020-12-22T22:51:50+03:00*%
%TF.ProjectId,RTL8019,52544c38-3031-4392-9e6b-696361645f70,rev?*%
%TF.SameCoordinates,Original*%
%TF.FileFunction,Soldermask,Bot*%
%TF.FilePolarity,Negative*%
%FSLAX46Y46*%
G04 Gerber Fmt 4.6, Leading zero omitted, Abs format (unit mm)*
G04 Created by KiCad (PCBNEW (5.1.6)-1) date 2020-12-22 22:51:50*
%MOMM*%
%LPD*%
G01*
G04 APERTURE LIST*
%TA.AperFunction,Profile*%
%ADD10C,0.381000*%
%TD*%
%ADD11C,0.150000*%
%ADD12C,0.155000*%
G04 APERTURE END LIST*
D10*
X133420000Y-123775000D02*
X133420000Y-53784500D01*
X214510000Y-116840000D02*
X214510000Y-123775000D01*
X135960000Y-51244500D02*
X234720000Y-51244500D01*
X237260000Y-53784500D02*
X237260000Y-114300000D01*
X214510000Y-116840000D02*
X234720000Y-116840000D01*
X237260000Y-53784500D02*
G75*
G03*
X234720000Y-51244500I-2540000J0D01*
G01*
X135960000Y-51244500D02*
G75*
G03*
X133420000Y-53784500I0J-2540000D01*
G01*
X234720000Y-116840000D02*
G75*
G03*
X237260000Y-114300000I0J2540000D01*
G01*
X133420000Y-123775000D02*
G75*
G03*
X134055000Y-124410000I635000J0D01*
G01*
X134055000Y-124410000D02*
X213875000Y-124410000D01*
X213875000Y-124410000D02*
G75*
G03*
X214510000Y-123775000I0J635000D01*
G01*
D11*
%TO.C,REF\u002A\u002A*%
G36*
X204402994Y-59966882D02*
G01*
X204166669Y-60053878D01*
X203948814Y-60184503D01*
X203755523Y-60354486D01*
X203592889Y-60559554D01*
X203467004Y-60795437D01*
X203398153Y-60998426D01*
X203369630Y-61161456D01*
X203357177Y-61354042D01*
X203360830Y-61552362D01*
X203380622Y-61732595D01*
X203396965Y-61809963D01*
X203489612Y-62067708D01*
X203622868Y-62298130D01*
X203790707Y-62497102D01*
X203987100Y-62660495D01*
X204206023Y-62784180D01*
X204441448Y-62864031D01*
X204687349Y-62895918D01*
X204937699Y-62875715D01*
X204949495Y-62873410D01*
X205211285Y-62792940D01*
X205449629Y-62663872D01*
X205659018Y-62491129D01*
X205833944Y-62279629D01*
X205968899Y-62034295D01*
X206011577Y-61924553D01*
X206041968Y-61827104D01*
X206061578Y-61734782D01*
X206072494Y-61630630D01*
X206076802Y-61497690D01*
X206077066Y-61392364D01*
X206075053Y-61239276D01*
X206068807Y-61126208D01*
X206055937Y-61036762D01*
X206034054Y-60954544D01*
X206000764Y-60863159D01*
X205999366Y-60859601D01*
X205869243Y-60597689D01*
X205701730Y-60373586D01*
X205500944Y-60190755D01*
X205271003Y-60052657D01*
X205016025Y-59962755D01*
X204906683Y-59940865D01*
X204651696Y-59927787D01*
X204402994Y-59966882D01*
G37*
X204402994Y-59966882D02*
X204166669Y-60053878D01*
X203948814Y-60184503D01*
X203755523Y-60354486D01*
X203592889Y-60559554D01*
X203467004Y-60795437D01*
X203398153Y-60998426D01*
X203369630Y-61161456D01*
X203357177Y-61354042D01*
X203360830Y-61552362D01*
X203380622Y-61732595D01*
X203396965Y-61809963D01*
X203489612Y-62067708D01*
X203622868Y-62298130D01*
X203790707Y-62497102D01*
X203987100Y-62660495D01*
X204206023Y-62784180D01*
X204441448Y-62864031D01*
X204687349Y-62895918D01*
X204937699Y-62875715D01*
X204949495Y-62873410D01*
X205211285Y-62792940D01*
X205449629Y-62663872D01*
X205659018Y-62491129D01*
X205833944Y-62279629D01*
X205968899Y-62034295D01*
X206011577Y-61924553D01*
X206041968Y-61827104D01*
X206061578Y-61734782D01*
X206072494Y-61630630D01*
X206076802Y-61497690D01*
X206077066Y-61392364D01*
X206075053Y-61239276D01*
X206068807Y-61126208D01*
X206055937Y-61036762D01*
X206034054Y-60954544D01*
X206000764Y-60863159D01*
X205999366Y-60859601D01*
X205869243Y-60597689D01*
X205701730Y-60373586D01*
X205500944Y-60190755D01*
X205271003Y-60052657D01*
X205016025Y-59962755D01*
X204906683Y-59940865D01*
X204651696Y-59927787D01*
X204402994Y-59966882D01*
G36*
X201321379Y-63652339D02*
G01*
X201127865Y-63657940D01*
X200973817Y-63669578D01*
X200850763Y-63689235D01*
X200750234Y-63718892D01*
X200663758Y-63760530D01*
X200582866Y-63816131D01*
X200499087Y-63887677D01*
X200481636Y-63903706D01*
X200333175Y-64066947D01*
X200241587Y-64222166D01*
X200171229Y-64438149D01*
X200133750Y-64696251D01*
X200128630Y-64993084D01*
X200155353Y-65325263D01*
X200213397Y-65689401D01*
X200302245Y-66082114D01*
X200421378Y-66500015D01*
X200570276Y-66939719D01*
X200716187Y-67319031D01*
X200850861Y-67647236D01*
X200979550Y-67952259D01*
X201100287Y-68229819D01*
X201211103Y-68475636D01*
X201310030Y-68685431D01*
X201395101Y-68854924D01*
X201464348Y-68979833D01*
X201513510Y-69053091D01*
X201569351Y-69122041D01*
X201648688Y-68996647D01*
X201715527Y-68880096D01*
X201799638Y-68714276D01*
X201901401Y-68498368D01*
X202021195Y-68231548D01*
X202159400Y-67912998D01*
X202267762Y-67657698D01*
X202381944Y-67383971D01*
X202476307Y-67150825D01*
X202554624Y-66947563D01*
X202620668Y-66763488D01*
X202678215Y-66587903D01*
X202731036Y-66410111D01*
X202782906Y-66219416D01*
X202804294Y-66136891D01*
X202875344Y-65843134D01*
X202927119Y-65587502D01*
X202961698Y-65355869D01*
X202981160Y-65134112D01*
X202987587Y-64908105D01*
X202987602Y-64891920D01*
X202979108Y-64640808D01*
X202951642Y-64433946D01*
X202901689Y-64261296D01*
X202825734Y-64112821D01*
X202720261Y-63978485D01*
X202639883Y-63899154D01*
X202553215Y-63824691D01*
X202469788Y-63766568D01*
X202381069Y-63722818D01*
X202278525Y-63691474D01*
X202153621Y-63670567D01*
X201997824Y-63658131D01*
X201802601Y-63652196D01*
X201562828Y-63650794D01*
X201321379Y-63652339D01*
G37*
X201321379Y-63652339D02*
X201127865Y-63657940D01*
X200973817Y-63669578D01*
X200850763Y-63689235D01*
X200750234Y-63718892D01*
X200663758Y-63760530D01*
X200582866Y-63816131D01*
X200499087Y-63887677D01*
X200481636Y-63903706D01*
X200333175Y-64066947D01*
X200241587Y-64222166D01*
X200171229Y-64438149D01*
X200133750Y-64696251D01*
X200128630Y-64993084D01*
X200155353Y-65325263D01*
X200213397Y-65689401D01*
X200302245Y-66082114D01*
X200421378Y-66500015D01*
X200570276Y-66939719D01*
X200716187Y-67319031D01*
X200850861Y-67647236D01*
X200979550Y-67952259D01*
X201100287Y-68229819D01*
X201211103Y-68475636D01*
X201310030Y-68685431D01*
X201395101Y-68854924D01*
X201464348Y-68979833D01*
X201513510Y-69053091D01*
X201569351Y-69122041D01*
X201648688Y-68996647D01*
X201715527Y-68880096D01*
X201799638Y-68714276D01*
X201901401Y-68498368D01*
X202021195Y-68231548D01*
X202159400Y-67912998D01*
X202267762Y-67657698D01*
X202381944Y-67383971D01*
X202476307Y-67150825D01*
X202554624Y-66947563D01*
X202620668Y-66763488D01*
X202678215Y-66587903D01*
X202731036Y-66410111D01*
X202782906Y-66219416D01*
X202804294Y-66136891D01*
X202875344Y-65843134D01*
X202927119Y-65587502D01*
X202961698Y-65355869D01*
X202981160Y-65134112D01*
X202987587Y-64908105D01*
X202987602Y-64891920D01*
X202979108Y-64640808D01*
X202951642Y-64433946D01*
X202901689Y-64261296D01*
X202825734Y-64112821D01*
X202720261Y-63978485D01*
X202639883Y-63899154D01*
X202553215Y-63824691D01*
X202469788Y-63766568D01*
X202381069Y-63722818D01*
X202278525Y-63691474D01*
X202153621Y-63670567D01*
X201997824Y-63658131D01*
X201802601Y-63652196D01*
X201562828Y-63650794D01*
X201321379Y-63652339D01*
G36*
X198121479Y-59962198D02*
G01*
X197860686Y-60053806D01*
X197827124Y-60069697D01*
X197599938Y-60209728D01*
X197410211Y-60385816D01*
X197258457Y-60591345D01*
X197145191Y-60819698D01*
X197070926Y-61064259D01*
X197036177Y-61318412D01*
X197041458Y-61575540D01*
X197087282Y-61829028D01*
X197174163Y-62072259D01*
X197302616Y-62298616D01*
X197473155Y-62501484D01*
X197627948Y-62633475D01*
X197837846Y-62757058D01*
X198073176Y-62842579D01*
X198318833Y-62886550D01*
X198559712Y-62885482D01*
X198655653Y-62870799D01*
X198900119Y-62793275D01*
X199127097Y-62666902D01*
X199329984Y-62498214D01*
X199502174Y-62293746D01*
X199637063Y-62060035D01*
X199726008Y-61811624D01*
X199755394Y-61644439D01*
X199768148Y-61450713D01*
X199764178Y-61253846D01*
X199743396Y-61077238D01*
X199729080Y-61012644D01*
X199636467Y-60755600D01*
X199504343Y-60521494D01*
X199339570Y-60320330D01*
X199149011Y-60162117D01*
X199143119Y-60158238D01*
X198893628Y-60025038D01*
X198639294Y-59947904D01*
X198381463Y-59926927D01*
X198121479Y-59962198D01*
G37*
X198121479Y-59962198D02*
X197860686Y-60053806D01*
X197827124Y-60069697D01*
X197599938Y-60209728D01*
X197410211Y-60385816D01*
X197258457Y-60591345D01*
X197145191Y-60819698D01*
X197070926Y-61064259D01*
X197036177Y-61318412D01*
X197041458Y-61575540D01*
X197087282Y-61829028D01*
X197174163Y-62072259D01*
X197302616Y-62298616D01*
X197473155Y-62501484D01*
X197627948Y-62633475D01*
X197837846Y-62757058D01*
X198073176Y-62842579D01*
X198318833Y-62886550D01*
X198559712Y-62885482D01*
X198655653Y-62870799D01*
X198900119Y-62793275D01*
X199127097Y-62666902D01*
X199329984Y-62498214D01*
X199502174Y-62293746D01*
X199637063Y-62060035D01*
X199726008Y-61811624D01*
X199755394Y-61644439D01*
X199768148Y-61450713D01*
X199764178Y-61253846D01*
X199743396Y-61077238D01*
X199729080Y-61012644D01*
X199636467Y-60755600D01*
X199504343Y-60521494D01*
X199339570Y-60320330D01*
X199149011Y-60162117D01*
X199143119Y-60158238D01*
X198893628Y-60025038D01*
X198639294Y-59947904D01*
X198381463Y-59926927D01*
X198121479Y-59962198D01*
D12*
G36*
X139369800Y-124206000D02*
G01*
X137490200Y-124206000D01*
X137490200Y-116484400D01*
X139369800Y-116484400D01*
X139369800Y-124206000D01*
G37*
G36*
X190169800Y-124206000D02*
G01*
X188290200Y-124206000D01*
X188290200Y-116484400D01*
X190169800Y-116484400D01*
X190169800Y-124206000D01*
G37*
G36*
X152069800Y-124206000D02*
G01*
X150190200Y-124206000D01*
X150190200Y-116484400D01*
X152069800Y-116484400D01*
X152069800Y-124206000D01*
G37*
G36*
X154609800Y-124206000D02*
G01*
X152730200Y-124206000D01*
X152730200Y-116484400D01*
X154609800Y-116484400D01*
X154609800Y-124206000D01*
G37*
G36*
X157149800Y-124206000D02*
G01*
X155270200Y-124206000D01*
X155270200Y-116484400D01*
X157149800Y-116484400D01*
X157149800Y-124206000D01*
G37*
G36*
X159689800Y-124206000D02*
G01*
X157810200Y-124206000D01*
X157810200Y-116484400D01*
X159689800Y-116484400D01*
X159689800Y-124206000D01*
G37*
G36*
X162229800Y-124206000D02*
G01*
X160350200Y-124206000D01*
X160350200Y-116484400D01*
X162229800Y-116484400D01*
X162229800Y-124206000D01*
G37*
G36*
X164769800Y-124206000D02*
G01*
X162890200Y-124206000D01*
X162890200Y-116484400D01*
X164769800Y-116484400D01*
X164769800Y-124206000D01*
G37*
G36*
X167309800Y-124206000D02*
G01*
X165430200Y-124206000D01*
X165430200Y-116484400D01*
X167309800Y-116484400D01*
X167309800Y-124206000D01*
G37*
G36*
X169849800Y-124206000D02*
G01*
X167970200Y-124206000D01*
X167970200Y-116484400D01*
X169849800Y-116484400D01*
X169849800Y-124206000D01*
G37*
G36*
X172389800Y-124206000D02*
G01*
X170510200Y-124206000D01*
X170510200Y-116484400D01*
X172389800Y-116484400D01*
X172389800Y-124206000D01*
G37*
G36*
X174929800Y-124206000D02*
G01*
X173050200Y-124206000D01*
X173050200Y-116484400D01*
X174929800Y-116484400D01*
X174929800Y-124206000D01*
G37*
G36*
X177469800Y-124206000D02*
G01*
X175590200Y-124206000D01*
X175590200Y-116484400D01*
X177469800Y-116484400D01*
X177469800Y-124206000D01*
G37*
G36*
X180009800Y-124206000D02*
G01*
X178130200Y-124206000D01*
X178130200Y-116484400D01*
X180009800Y-116484400D01*
X180009800Y-124206000D01*
G37*
G36*
X182549800Y-124206000D02*
G01*
X180670200Y-124206000D01*
X180670200Y-116484400D01*
X182549800Y-116484400D01*
X182549800Y-124206000D01*
G37*
G36*
X185089800Y-124206000D02*
G01*
X183210200Y-124206000D01*
X183210200Y-116484400D01*
X185089800Y-116484400D01*
X185089800Y-124206000D01*
G37*
G36*
X136829800Y-124206000D02*
G01*
X134950200Y-124206000D01*
X134950200Y-116484400D01*
X136829800Y-116484400D01*
X136829800Y-124206000D01*
G37*
G36*
X187629800Y-124206000D02*
G01*
X185750200Y-124206000D01*
X185750200Y-116484400D01*
X187629800Y-116484400D01*
X187629800Y-124206000D01*
G37*
G36*
X141909800Y-124206000D02*
G01*
X140030200Y-124206000D01*
X140030200Y-116484400D01*
X141909800Y-116484400D01*
X141909800Y-124206000D01*
G37*
G36*
X144449800Y-124206000D02*
G01*
X142570200Y-124206000D01*
X142570200Y-116484400D01*
X144449800Y-116484400D01*
X144449800Y-124206000D01*
G37*
G36*
X146989800Y-124206000D02*
G01*
X145110200Y-124206000D01*
X145110200Y-116484400D01*
X146989800Y-116484400D01*
X146989800Y-124206000D01*
G37*
G36*
X213029800Y-124206000D02*
G01*
X211150200Y-124206000D01*
X211150200Y-116484400D01*
X213029800Y-116484400D01*
X213029800Y-124206000D01*
G37*
G36*
X149529800Y-124206000D02*
G01*
X147650200Y-124206000D01*
X147650200Y-116484400D01*
X149529800Y-116484400D01*
X149529800Y-124206000D01*
G37*
G36*
X210489800Y-124206000D02*
G01*
X208610200Y-124206000D01*
X208610200Y-116484400D01*
X210489800Y-116484400D01*
X210489800Y-124206000D01*
G37*
G36*
X205409800Y-124206000D02*
G01*
X203530200Y-124206000D01*
X203530200Y-116484400D01*
X205409800Y-116484400D01*
X205409800Y-124206000D01*
G37*
G36*
X202869800Y-124206000D02*
G01*
X200990200Y-124206000D01*
X200990200Y-116484400D01*
X202869800Y-116484400D01*
X202869800Y-124206000D01*
G37*
G36*
X200329800Y-124206000D02*
G01*
X198450200Y-124206000D01*
X198450200Y-116484400D01*
X200329800Y-116484400D01*
X200329800Y-124206000D01*
G37*
G36*
X197789800Y-124206000D02*
G01*
X195910200Y-124206000D01*
X195910200Y-116484400D01*
X197789800Y-116484400D01*
X197789800Y-124206000D01*
G37*
G36*
X195249800Y-124206000D02*
G01*
X193370200Y-124206000D01*
X193370200Y-116484400D01*
X195249800Y-116484400D01*
X195249800Y-124206000D01*
G37*
G36*
X192709800Y-124206000D02*
G01*
X190830200Y-124206000D01*
X190830200Y-116484400D01*
X192709800Y-116484400D01*
X192709800Y-124206000D01*
G37*
G36*
X207949800Y-124206000D02*
G01*
X206070200Y-124206000D01*
X206070200Y-116484400D01*
X207949800Y-116484400D01*
X207949800Y-124206000D01*
G37*
G36*
X233317748Y-109785954D02*
G01*
X233836560Y-110000854D01*
X234303479Y-110312839D01*
X234700561Y-110709921D01*
X235012546Y-111176840D01*
X235227446Y-111695652D01*
X235337000Y-112246421D01*
X235337000Y-112807979D01*
X235227446Y-113358748D01*
X235012546Y-113877560D01*
X234700561Y-114344479D01*
X234303479Y-114741561D01*
X233836560Y-115053546D01*
X233317748Y-115268446D01*
X232766979Y-115378000D01*
X232205421Y-115378000D01*
X231654652Y-115268446D01*
X231135840Y-115053546D01*
X230668921Y-114741561D01*
X230271839Y-114344479D01*
X229959854Y-113877560D01*
X229744954Y-113358748D01*
X229635400Y-112807979D01*
X229635400Y-112246421D01*
X229744954Y-111695652D01*
X229959854Y-111176840D01*
X230271839Y-110709921D01*
X230668921Y-110312839D01*
X231135840Y-110000854D01*
X231654652Y-109785954D01*
X232205421Y-109676400D01*
X232766979Y-109676400D01*
X233317748Y-109785954D01*
G37*
G36*
X141820800Y-111290000D02*
G01*
X140119200Y-111290000D01*
X140119200Y-109588400D01*
X141820800Y-109588400D01*
X141820800Y-111290000D01*
G37*
G36*
X202854460Y-111285940D02*
G01*
X201152860Y-111285940D01*
X201152860Y-109584340D01*
X202854460Y-109584340D01*
X202854460Y-111285940D01*
G37*
G36*
X141218169Y-107621095D02*
G01*
X141373005Y-107685231D01*
X141512354Y-107778340D01*
X141630860Y-107896846D01*
X141723969Y-108036195D01*
X141788105Y-108191031D01*
X141820800Y-108355403D01*
X141820800Y-108522997D01*
X141788105Y-108687369D01*
X141723969Y-108842205D01*
X141630860Y-108981554D01*
X141512354Y-109100060D01*
X141373005Y-109193169D01*
X141218169Y-109257305D01*
X141053797Y-109290000D01*
X140886203Y-109290000D01*
X140721831Y-109257305D01*
X140566995Y-109193169D01*
X140427646Y-109100060D01*
X140309140Y-108981554D01*
X140216031Y-108842205D01*
X140151895Y-108687369D01*
X140119200Y-108522997D01*
X140119200Y-108355403D01*
X140151895Y-108191031D01*
X140216031Y-108036195D01*
X140309140Y-107896846D01*
X140427646Y-107778340D01*
X140566995Y-107685231D01*
X140721831Y-107621095D01*
X140886203Y-107588400D01*
X141053797Y-107588400D01*
X141218169Y-107621095D01*
G37*
G36*
X202251829Y-107617035D02*
G01*
X202406665Y-107681171D01*
X202546014Y-107774280D01*
X202664520Y-107892786D01*
X202757629Y-108032135D01*
X202821765Y-108186971D01*
X202854460Y-108351343D01*
X202854460Y-108518937D01*
X202821765Y-108683309D01*
X202757629Y-108838145D01*
X202664520Y-108977494D01*
X202546014Y-109096000D01*
X202406665Y-109189109D01*
X202251829Y-109253245D01*
X202087457Y-109285940D01*
X201919863Y-109285940D01*
X201755491Y-109253245D01*
X201600655Y-109189109D01*
X201461306Y-109096000D01*
X201342800Y-108977494D01*
X201249691Y-108838145D01*
X201185555Y-108683309D01*
X201152860Y-108518937D01*
X201152860Y-108351343D01*
X201185555Y-108186971D01*
X201249691Y-108032135D01*
X201342800Y-107892786D01*
X201461306Y-107774280D01*
X201600655Y-107681171D01*
X201755491Y-107617035D01*
X201919863Y-107584340D01*
X202087457Y-107584340D01*
X202251829Y-107617035D01*
G37*
G36*
X141116569Y-100527895D02*
G01*
X141271405Y-100592031D01*
X141410754Y-100685140D01*
X141529260Y-100803646D01*
X141622369Y-100942995D01*
X141686505Y-101097831D01*
X141719200Y-101262203D01*
X141719200Y-101429797D01*
X141686505Y-101594169D01*
X141622369Y-101749005D01*
X141529260Y-101888354D01*
X141410754Y-102006860D01*
X141271405Y-102099969D01*
X141116569Y-102164105D01*
X140952197Y-102196800D01*
X140784603Y-102196800D01*
X140620231Y-102164105D01*
X140465395Y-102099969D01*
X140326046Y-102006860D01*
X140207540Y-101888354D01*
X140114431Y-101749005D01*
X140050295Y-101594169D01*
X140017600Y-101429797D01*
X140017600Y-101262203D01*
X140050295Y-101097831D01*
X140114431Y-100942995D01*
X140207540Y-100803646D01*
X140326046Y-100685140D01*
X140465395Y-100592031D01*
X140620231Y-100527895D01*
X140784603Y-100495200D01*
X140952197Y-100495200D01*
X141116569Y-100527895D01*
G37*
G36*
X156356569Y-100527895D02*
G01*
X156511405Y-100592031D01*
X156650754Y-100685140D01*
X156769260Y-100803646D01*
X156862369Y-100942995D01*
X156926505Y-101097831D01*
X156959200Y-101262203D01*
X156959200Y-101429797D01*
X156926505Y-101594169D01*
X156862369Y-101749005D01*
X156769260Y-101888354D01*
X156650754Y-102006860D01*
X156511405Y-102099969D01*
X156356569Y-102164105D01*
X156192197Y-102196800D01*
X156024603Y-102196800D01*
X155860231Y-102164105D01*
X155705395Y-102099969D01*
X155566046Y-102006860D01*
X155447540Y-101888354D01*
X155354431Y-101749005D01*
X155290295Y-101594169D01*
X155257600Y-101429797D01*
X155257600Y-101262203D01*
X155290295Y-101097831D01*
X155354431Y-100942995D01*
X155447540Y-100803646D01*
X155566046Y-100685140D01*
X155705395Y-100592031D01*
X155860231Y-100527895D01*
X156024603Y-100495200D01*
X156192197Y-100495200D01*
X156356569Y-100527895D01*
G37*
G36*
X141116569Y-97987895D02*
G01*
X141271405Y-98052031D01*
X141410754Y-98145140D01*
X141529260Y-98263646D01*
X141622369Y-98402995D01*
X141686505Y-98557831D01*
X141719200Y-98722203D01*
X141719200Y-98889797D01*
X141686505Y-99054169D01*
X141622369Y-99209005D01*
X141529260Y-99348354D01*
X141410754Y-99466860D01*
X141271405Y-99559969D01*
X141116569Y-99624105D01*
X140952197Y-99656800D01*
X140784603Y-99656800D01*
X140620231Y-99624105D01*
X140465395Y-99559969D01*
X140326046Y-99466860D01*
X140207540Y-99348354D01*
X140114431Y-99209005D01*
X140050295Y-99054169D01*
X140017600Y-98889797D01*
X140017600Y-98722203D01*
X140050295Y-98557831D01*
X140114431Y-98402995D01*
X140207540Y-98263646D01*
X140326046Y-98145140D01*
X140465395Y-98052031D01*
X140620231Y-97987895D01*
X140784603Y-97955200D01*
X140952197Y-97955200D01*
X141116569Y-97987895D01*
G37*
G36*
X156356569Y-97987895D02*
G01*
X156511405Y-98052031D01*
X156650754Y-98145140D01*
X156769260Y-98263646D01*
X156862369Y-98402995D01*
X156926505Y-98557831D01*
X156959200Y-98722203D01*
X156959200Y-98889797D01*
X156926505Y-99054169D01*
X156862369Y-99209005D01*
X156769260Y-99348354D01*
X156650754Y-99466860D01*
X156511405Y-99559969D01*
X156356569Y-99624105D01*
X156192197Y-99656800D01*
X156024603Y-99656800D01*
X155860231Y-99624105D01*
X155705395Y-99559969D01*
X155566046Y-99466860D01*
X155447540Y-99348354D01*
X155354431Y-99209005D01*
X155290295Y-99054169D01*
X155257600Y-98889797D01*
X155257600Y-98722203D01*
X155290295Y-98557831D01*
X155354431Y-98402995D01*
X155447540Y-98263646D01*
X155566046Y-98145140D01*
X155705395Y-98052031D01*
X155860231Y-97987895D01*
X156024603Y-97955200D01*
X156192197Y-97955200D01*
X156356569Y-97987895D01*
G37*
G36*
X141116569Y-95447895D02*
G01*
X141271405Y-95512031D01*
X141410754Y-95605140D01*
X141529260Y-95723646D01*
X141622369Y-95862995D01*
X141686505Y-96017831D01*
X141719200Y-96182203D01*
X141719200Y-96349797D01*
X141686505Y-96514169D01*
X141622369Y-96669005D01*
X141529260Y-96808354D01*
X141410754Y-96926860D01*
X141271405Y-97019969D01*
X141116569Y-97084105D01*
X140952197Y-97116800D01*
X140784603Y-97116800D01*
X140620231Y-97084105D01*
X140465395Y-97019969D01*
X140326046Y-96926860D01*
X140207540Y-96808354D01*
X140114431Y-96669005D01*
X140050295Y-96514169D01*
X140017600Y-96349797D01*
X140017600Y-96182203D01*
X140050295Y-96017831D01*
X140114431Y-95862995D01*
X140207540Y-95723646D01*
X140326046Y-95605140D01*
X140465395Y-95512031D01*
X140620231Y-95447895D01*
X140784603Y-95415200D01*
X140952197Y-95415200D01*
X141116569Y-95447895D01*
G37*
G36*
X156356569Y-95447895D02*
G01*
X156511405Y-95512031D01*
X156650754Y-95605140D01*
X156769260Y-95723646D01*
X156862369Y-95862995D01*
X156926505Y-96017831D01*
X156959200Y-96182203D01*
X156959200Y-96349797D01*
X156926505Y-96514169D01*
X156862369Y-96669005D01*
X156769260Y-96808354D01*
X156650754Y-96926860D01*
X156511405Y-97019969D01*
X156356569Y-97084105D01*
X156192197Y-97116800D01*
X156024603Y-97116800D01*
X155860231Y-97084105D01*
X155705395Y-97019969D01*
X155566046Y-96926860D01*
X155447540Y-96808354D01*
X155354431Y-96669005D01*
X155290295Y-96514169D01*
X155257600Y-96349797D01*
X155257600Y-96182203D01*
X155290295Y-96017831D01*
X155354431Y-95862995D01*
X155447540Y-95723646D01*
X155566046Y-95605140D01*
X155705395Y-95512031D01*
X155860231Y-95447895D01*
X156024603Y-95415200D01*
X156192197Y-95415200D01*
X156356569Y-95447895D01*
G37*
G36*
X216193807Y-93922082D02*
G01*
X216385040Y-94001293D01*
X216557146Y-94116291D01*
X216703509Y-94262654D01*
X216818507Y-94434760D01*
X216897718Y-94625993D01*
X216938100Y-94829005D01*
X216938100Y-95035995D01*
X216897718Y-95239007D01*
X216818507Y-95430240D01*
X216703509Y-95602346D01*
X216557146Y-95748709D01*
X216385040Y-95863707D01*
X216193807Y-95942918D01*
X215990795Y-95983300D01*
X215783805Y-95983300D01*
X215580793Y-95942918D01*
X215389560Y-95863707D01*
X215217454Y-95748709D01*
X215071091Y-95602346D01*
X214956093Y-95430240D01*
X214876882Y-95239007D01*
X214836500Y-95035995D01*
X214836500Y-94829005D01*
X214876882Y-94625993D01*
X214956093Y-94434760D01*
X215071091Y-94262654D01*
X215217454Y-94116291D01*
X215389560Y-94001293D01*
X215580793Y-93922082D01*
X215783805Y-93881700D01*
X215990795Y-93881700D01*
X216193807Y-93922082D01*
G37*
G36*
X223693807Y-93922082D02*
G01*
X223885040Y-94001293D01*
X224057146Y-94116291D01*
X224203509Y-94262654D01*
X224318507Y-94434760D01*
X224397718Y-94625993D01*
X224438100Y-94829005D01*
X224438100Y-95035995D01*
X224397718Y-95239007D01*
X224318507Y-95430240D01*
X224203509Y-95602346D01*
X224057146Y-95748709D01*
X223885040Y-95863707D01*
X223693807Y-95942918D01*
X223490795Y-95983300D01*
X223283805Y-95983300D01*
X223080793Y-95942918D01*
X222889560Y-95863707D01*
X222717454Y-95748709D01*
X222571091Y-95602346D01*
X222456093Y-95430240D01*
X222376882Y-95239007D01*
X222336500Y-95035995D01*
X222336500Y-94829005D01*
X222376882Y-94625993D01*
X222456093Y-94434760D01*
X222571091Y-94262654D01*
X222717454Y-94116291D01*
X222889560Y-94001293D01*
X223080793Y-93922082D01*
X223283805Y-93881700D01*
X223490795Y-93881700D01*
X223693807Y-93922082D01*
G37*
G36*
X156356569Y-92907895D02*
G01*
X156511405Y-92972031D01*
X156650754Y-93065140D01*
X156769260Y-93183646D01*
X156862369Y-93322995D01*
X156926505Y-93477831D01*
X156959200Y-93642203D01*
X156959200Y-93809797D01*
X156926505Y-93974169D01*
X156862369Y-94129005D01*
X156769260Y-94268354D01*
X156650754Y-94386860D01*
X156511405Y-94479969D01*
X156356569Y-94544105D01*
X156192197Y-94576800D01*
X156024603Y-94576800D01*
X155860231Y-94544105D01*
X155705395Y-94479969D01*
X155566046Y-94386860D01*
X155447540Y-94268354D01*
X155354431Y-94129005D01*
X155290295Y-93974169D01*
X155257600Y-93809797D01*
X155257600Y-93642203D01*
X155290295Y-93477831D01*
X155354431Y-93322995D01*
X155447540Y-93183646D01*
X155566046Y-93065140D01*
X155705395Y-92972031D01*
X155860231Y-92907895D01*
X156024603Y-92875200D01*
X156192197Y-92875200D01*
X156356569Y-92907895D01*
G37*
G36*
X141116569Y-92907895D02*
G01*
X141271405Y-92972031D01*
X141410754Y-93065140D01*
X141529260Y-93183646D01*
X141622369Y-93322995D01*
X141686505Y-93477831D01*
X141719200Y-93642203D01*
X141719200Y-93809797D01*
X141686505Y-93974169D01*
X141622369Y-94129005D01*
X141529260Y-94268354D01*
X141410754Y-94386860D01*
X141271405Y-94479969D01*
X141116569Y-94544105D01*
X140952197Y-94576800D01*
X140784603Y-94576800D01*
X140620231Y-94544105D01*
X140465395Y-94479969D01*
X140326046Y-94386860D01*
X140207540Y-94268354D01*
X140114431Y-94129005D01*
X140050295Y-93974169D01*
X140017600Y-93809797D01*
X140017600Y-93642203D01*
X140050295Y-93477831D01*
X140114431Y-93322995D01*
X140207540Y-93183646D01*
X140326046Y-93065140D01*
X140465395Y-92972031D01*
X140620231Y-92907895D01*
X140784603Y-92875200D01*
X140952197Y-92875200D01*
X141116569Y-92907895D01*
G37*
G36*
X156356569Y-90367895D02*
G01*
X156511405Y-90432031D01*
X156650754Y-90525140D01*
X156769260Y-90643646D01*
X156862369Y-90782995D01*
X156926505Y-90937831D01*
X156959200Y-91102203D01*
X156959200Y-91269797D01*
X156926505Y-91434169D01*
X156862369Y-91589005D01*
X156769260Y-91728354D01*
X156650754Y-91846860D01*
X156511405Y-91939969D01*
X156356569Y-92004105D01*
X156192197Y-92036800D01*
X156024603Y-92036800D01*
X155860231Y-92004105D01*
X155705395Y-91939969D01*
X155566046Y-91846860D01*
X155447540Y-91728354D01*
X155354431Y-91589005D01*
X155290295Y-91434169D01*
X155257600Y-91269797D01*
X155257600Y-91102203D01*
X155290295Y-90937831D01*
X155354431Y-90782995D01*
X155447540Y-90643646D01*
X155566046Y-90525140D01*
X155705395Y-90432031D01*
X155860231Y-90367895D01*
X156024603Y-90335200D01*
X156192197Y-90335200D01*
X156356569Y-90367895D01*
G37*
G36*
X141116569Y-90367895D02*
G01*
X141271405Y-90432031D01*
X141410754Y-90525140D01*
X141529260Y-90643646D01*
X141622369Y-90782995D01*
X141686505Y-90937831D01*
X141719200Y-91102203D01*
X141719200Y-91269797D01*
X141686505Y-91434169D01*
X141622369Y-91589005D01*
X141529260Y-91728354D01*
X141410754Y-91846860D01*
X141271405Y-91939969D01*
X141116569Y-92004105D01*
X140952197Y-92036800D01*
X140784603Y-92036800D01*
X140620231Y-92004105D01*
X140465395Y-91939969D01*
X140326046Y-91846860D01*
X140207540Y-91728354D01*
X140114431Y-91589005D01*
X140050295Y-91434169D01*
X140017600Y-91269797D01*
X140017600Y-91102203D01*
X140050295Y-90937831D01*
X140114431Y-90782995D01*
X140207540Y-90643646D01*
X140326046Y-90525140D01*
X140465395Y-90432031D01*
X140620231Y-90367895D01*
X140784603Y-90335200D01*
X140952197Y-90335200D01*
X141116569Y-90367895D01*
G37*
G36*
X230327907Y-89267182D02*
G01*
X230519140Y-89346393D01*
X230691246Y-89461391D01*
X230837609Y-89607754D01*
X230952607Y-89779860D01*
X231031818Y-89971093D01*
X231072200Y-90174105D01*
X231072200Y-90381095D01*
X231031818Y-90584107D01*
X230952607Y-90775340D01*
X230837609Y-90947446D01*
X230691246Y-91093809D01*
X230519140Y-91208807D01*
X230327907Y-91288018D01*
X230124895Y-91328400D01*
X229917905Y-91328400D01*
X229714893Y-91288018D01*
X229523660Y-91208807D01*
X229351554Y-91093809D01*
X229205191Y-90947446D01*
X229090193Y-90775340D01*
X229010982Y-90584107D01*
X228970600Y-90381095D01*
X228970600Y-90174105D01*
X229010982Y-89971093D01*
X229090193Y-89779860D01*
X229205191Y-89607754D01*
X229351554Y-89461391D01*
X229523660Y-89346393D01*
X229714893Y-89267182D01*
X229917905Y-89226800D01*
X230124895Y-89226800D01*
X230327907Y-89267182D01*
G37*
G36*
X233778332Y-86854000D02*
G01*
X233940214Y-86886201D01*
X234245188Y-87012525D01*
X234519660Y-87195922D01*
X234753078Y-87429340D01*
X234936475Y-87703812D01*
X235053005Y-87985141D01*
X235062799Y-88008787D01*
X235109387Y-88242995D01*
X235127200Y-88332549D01*
X235127200Y-88662651D01*
X235062799Y-88986414D01*
X234936475Y-89291388D01*
X234753078Y-89565860D01*
X234519660Y-89799278D01*
X234245188Y-89982675D01*
X233940214Y-90108999D01*
X233778333Y-90141199D01*
X233616452Y-90173400D01*
X233286348Y-90173400D01*
X233124468Y-90141200D01*
X232962586Y-90108999D01*
X232657612Y-89982675D01*
X232383140Y-89799278D01*
X232149722Y-89565860D01*
X231966325Y-89291388D01*
X231840001Y-88986414D01*
X231775600Y-88662651D01*
X231775600Y-88332549D01*
X231793414Y-88242995D01*
X231840001Y-88008787D01*
X231849795Y-87985141D01*
X231966325Y-87703812D01*
X232149722Y-87429340D01*
X232383140Y-87195922D01*
X232657612Y-87012525D01*
X232962586Y-86886201D01*
X233124468Y-86854000D01*
X233286348Y-86821800D01*
X233616452Y-86821800D01*
X233778332Y-86854000D01*
G37*
G36*
X216148169Y-88295255D02*
G01*
X216303005Y-88359391D01*
X216442354Y-88452500D01*
X216560860Y-88571006D01*
X216653969Y-88710355D01*
X216718105Y-88865191D01*
X216750800Y-89029563D01*
X216750800Y-89197157D01*
X216718105Y-89361529D01*
X216653969Y-89516365D01*
X216560860Y-89655714D01*
X216442354Y-89774220D01*
X216303005Y-89867329D01*
X216148169Y-89931465D01*
X215983797Y-89964160D01*
X215816203Y-89964160D01*
X215651831Y-89931465D01*
X215496995Y-89867329D01*
X215357646Y-89774220D01*
X215239140Y-89655714D01*
X215146031Y-89516365D01*
X215081895Y-89361529D01*
X215049200Y-89197157D01*
X215049200Y-89029563D01*
X215081895Y-88865191D01*
X215146031Y-88710355D01*
X215239140Y-88571006D01*
X215357646Y-88452500D01*
X215496995Y-88359391D01*
X215651831Y-88295255D01*
X215816203Y-88262560D01*
X215983797Y-88262560D01*
X216148169Y-88295255D01*
G37*
G36*
X208528169Y-88295255D02*
G01*
X208683005Y-88359391D01*
X208822354Y-88452500D01*
X208940860Y-88571006D01*
X209033969Y-88710355D01*
X209098105Y-88865191D01*
X209130800Y-89029563D01*
X209130800Y-89197157D01*
X209098105Y-89361529D01*
X209033969Y-89516365D01*
X208940860Y-89655714D01*
X208822354Y-89774220D01*
X208683005Y-89867329D01*
X208528169Y-89931465D01*
X208363797Y-89964160D01*
X208196203Y-89964160D01*
X208031831Y-89931465D01*
X207876995Y-89867329D01*
X207737646Y-89774220D01*
X207619140Y-89655714D01*
X207526031Y-89516365D01*
X207461895Y-89361529D01*
X207429200Y-89197157D01*
X207429200Y-89029563D01*
X207461895Y-88865191D01*
X207526031Y-88710355D01*
X207619140Y-88571006D01*
X207737646Y-88452500D01*
X207876995Y-88359391D01*
X208031831Y-88295255D01*
X208196203Y-88262560D01*
X208363797Y-88262560D01*
X208528169Y-88295255D01*
G37*
G36*
X224544985Y-88237574D02*
G01*
X224605306Y-88262560D01*
X224690724Y-88297941D01*
X224782689Y-88359391D01*
X224821880Y-88385578D01*
X224933422Y-88497120D01*
X224933424Y-88497123D01*
X225021059Y-88628276D01*
X225021060Y-88628279D01*
X225081426Y-88774015D01*
X225112200Y-88928728D01*
X225112200Y-89086472D01*
X225081426Y-89241185D01*
X225054223Y-89306859D01*
X225021059Y-89386924D01*
X224947641Y-89496800D01*
X224933422Y-89518080D01*
X224821880Y-89629622D01*
X224821877Y-89629624D01*
X224690724Y-89717259D01*
X224648038Y-89734940D01*
X224544985Y-89777626D01*
X224390272Y-89808400D01*
X224232528Y-89808400D01*
X224077815Y-89777626D01*
X223974762Y-89734940D01*
X223932076Y-89717259D01*
X223800923Y-89629624D01*
X223800920Y-89629622D01*
X223689378Y-89518080D01*
X223675159Y-89496800D01*
X223601741Y-89386924D01*
X223568577Y-89306859D01*
X223541374Y-89241185D01*
X223510600Y-89086472D01*
X223510600Y-88928728D01*
X223541374Y-88774015D01*
X223601740Y-88628279D01*
X223601741Y-88628276D01*
X223689376Y-88497123D01*
X223689378Y-88497120D01*
X223800920Y-88385578D01*
X223840111Y-88359391D01*
X223932076Y-88297941D01*
X224017494Y-88262560D01*
X224077815Y-88237574D01*
X224232528Y-88206800D01*
X224390272Y-88206800D01*
X224544985Y-88237574D01*
G37*
G36*
X156356569Y-87827895D02*
G01*
X156511405Y-87892031D01*
X156650754Y-87985140D01*
X156769260Y-88103646D01*
X156862369Y-88242995D01*
X156926505Y-88397831D01*
X156959200Y-88562203D01*
X156959200Y-88729797D01*
X156926505Y-88894169D01*
X156862369Y-89049005D01*
X156769260Y-89188354D01*
X156650754Y-89306860D01*
X156511405Y-89399969D01*
X156356569Y-89464105D01*
X156192197Y-89496800D01*
X156024603Y-89496800D01*
X155860231Y-89464105D01*
X155705395Y-89399969D01*
X155566046Y-89306860D01*
X155447540Y-89188354D01*
X155354431Y-89049005D01*
X155290295Y-88894169D01*
X155257600Y-88729797D01*
X155257600Y-88562203D01*
X155290295Y-88397831D01*
X155354431Y-88242995D01*
X155447540Y-88103646D01*
X155566046Y-87985140D01*
X155705395Y-87892031D01*
X155860231Y-87827895D01*
X156024603Y-87795200D01*
X156192197Y-87795200D01*
X156356569Y-87827895D01*
G37*
G36*
X141116569Y-87827895D02*
G01*
X141271405Y-87892031D01*
X141410754Y-87985140D01*
X141529260Y-88103646D01*
X141622369Y-88242995D01*
X141686505Y-88397831D01*
X141719200Y-88562203D01*
X141719200Y-88729797D01*
X141686505Y-88894169D01*
X141622369Y-89049005D01*
X141529260Y-89188354D01*
X141410754Y-89306860D01*
X141271405Y-89399969D01*
X141116569Y-89464105D01*
X140952197Y-89496800D01*
X140784603Y-89496800D01*
X140620231Y-89464105D01*
X140465395Y-89399969D01*
X140326046Y-89306860D01*
X140207540Y-89188354D01*
X140114431Y-89049005D01*
X140050295Y-88894169D01*
X140017600Y-88729797D01*
X140017600Y-88562203D01*
X140050295Y-88397831D01*
X140114431Y-88242995D01*
X140207540Y-88103646D01*
X140326046Y-87985140D01*
X140465395Y-87892031D01*
X140620231Y-87827895D01*
X140784603Y-87795200D01*
X140952197Y-87795200D01*
X141116569Y-87827895D01*
G37*
G36*
X224544985Y-85947574D02*
G01*
X224648038Y-85990260D01*
X224690724Y-86007941D01*
X224821286Y-86095181D01*
X224821880Y-86095578D01*
X224933422Y-86207120D01*
X224933424Y-86207123D01*
X225021059Y-86338276D01*
X225025759Y-86349624D01*
X225081426Y-86484015D01*
X225112200Y-86638728D01*
X225112200Y-86796472D01*
X225081426Y-86951185D01*
X225038740Y-87054238D01*
X225021059Y-87096924D01*
X224933819Y-87227486D01*
X224933422Y-87228080D01*
X224821880Y-87339622D01*
X224821877Y-87339624D01*
X224690724Y-87427259D01*
X224648038Y-87444940D01*
X224544985Y-87487626D01*
X224390272Y-87518400D01*
X224232528Y-87518400D01*
X224077815Y-87487626D01*
X223974762Y-87444940D01*
X223932076Y-87427259D01*
X223800923Y-87339624D01*
X223800920Y-87339622D01*
X223689378Y-87228080D01*
X223688981Y-87227486D01*
X223601741Y-87096924D01*
X223584060Y-87054238D01*
X223541374Y-86951185D01*
X223510600Y-86796472D01*
X223510600Y-86638728D01*
X223541374Y-86484015D01*
X223597041Y-86349624D01*
X223601741Y-86338276D01*
X223689376Y-86207123D01*
X223689378Y-86207120D01*
X223800920Y-86095578D01*
X223801514Y-86095181D01*
X223932076Y-86007941D01*
X223974762Y-85990260D01*
X224077815Y-85947574D01*
X224232528Y-85916800D01*
X224390272Y-85916800D01*
X224544985Y-85947574D01*
G37*
G36*
X208528169Y-85755255D02*
G01*
X208683005Y-85819391D01*
X208822354Y-85912500D01*
X208940860Y-86031006D01*
X209033969Y-86170355D01*
X209098105Y-86325191D01*
X209130800Y-86489563D01*
X209130800Y-86657157D01*
X209098105Y-86821529D01*
X209033969Y-86976365D01*
X208940860Y-87115714D01*
X208822354Y-87234220D01*
X208683005Y-87327329D01*
X208528169Y-87391465D01*
X208363797Y-87424160D01*
X208196203Y-87424160D01*
X208031831Y-87391465D01*
X207876995Y-87327329D01*
X207737646Y-87234220D01*
X207619140Y-87115714D01*
X207526031Y-86976365D01*
X207461895Y-86821529D01*
X207429200Y-86657157D01*
X207429200Y-86489563D01*
X207461895Y-86325191D01*
X207526031Y-86170355D01*
X207619140Y-86031006D01*
X207737646Y-85912500D01*
X207876995Y-85819391D01*
X208031831Y-85755255D01*
X208196203Y-85722560D01*
X208363797Y-85722560D01*
X208528169Y-85755255D01*
G37*
G36*
X216148169Y-85755255D02*
G01*
X216303005Y-85819391D01*
X216442354Y-85912500D01*
X216560860Y-86031006D01*
X216653969Y-86170355D01*
X216718105Y-86325191D01*
X216750800Y-86489563D01*
X216750800Y-86657157D01*
X216718105Y-86821529D01*
X216653969Y-86976365D01*
X216560860Y-87115714D01*
X216442354Y-87234220D01*
X216303005Y-87327329D01*
X216148169Y-87391465D01*
X215983797Y-87424160D01*
X215816203Y-87424160D01*
X215651831Y-87391465D01*
X215496995Y-87327329D01*
X215357646Y-87234220D01*
X215239140Y-87115714D01*
X215146031Y-86976365D01*
X215081895Y-86821529D01*
X215049200Y-86657157D01*
X215049200Y-86489563D01*
X215081895Y-86325191D01*
X215146031Y-86170355D01*
X215239140Y-86031006D01*
X215357646Y-85912500D01*
X215496995Y-85819391D01*
X215651831Y-85755255D01*
X215816203Y-85722560D01*
X215983797Y-85722560D01*
X216148169Y-85755255D01*
G37*
G36*
X156356569Y-85287895D02*
G01*
X156511405Y-85352031D01*
X156650754Y-85445140D01*
X156769260Y-85563646D01*
X156862369Y-85702995D01*
X156926505Y-85857831D01*
X156959200Y-86022203D01*
X156959200Y-86189797D01*
X156926505Y-86354169D01*
X156862369Y-86509005D01*
X156769260Y-86648354D01*
X156650754Y-86766860D01*
X156511405Y-86859969D01*
X156356569Y-86924105D01*
X156192197Y-86956800D01*
X156024603Y-86956800D01*
X155860231Y-86924105D01*
X155705395Y-86859969D01*
X155566046Y-86766860D01*
X155447540Y-86648354D01*
X155354431Y-86509005D01*
X155290295Y-86354169D01*
X155257600Y-86189797D01*
X155257600Y-86022203D01*
X155290295Y-85857831D01*
X155354431Y-85702995D01*
X155447540Y-85563646D01*
X155566046Y-85445140D01*
X155705395Y-85352031D01*
X155860231Y-85287895D01*
X156024603Y-85255200D01*
X156192197Y-85255200D01*
X156356569Y-85287895D01*
G37*
G36*
X141116569Y-85287895D02*
G01*
X141271405Y-85352031D01*
X141410754Y-85445140D01*
X141529260Y-85563646D01*
X141622369Y-85702995D01*
X141686505Y-85857831D01*
X141719200Y-86022203D01*
X141719200Y-86189797D01*
X141686505Y-86354169D01*
X141622369Y-86509005D01*
X141529260Y-86648354D01*
X141410754Y-86766860D01*
X141271405Y-86859969D01*
X141116569Y-86924105D01*
X140952197Y-86956800D01*
X140784603Y-86956800D01*
X140620231Y-86924105D01*
X140465395Y-86859969D01*
X140326046Y-86766860D01*
X140207540Y-86648354D01*
X140114431Y-86509005D01*
X140050295Y-86354169D01*
X140017600Y-86189797D01*
X140017600Y-86022203D01*
X140050295Y-85857831D01*
X140114431Y-85702995D01*
X140207540Y-85563646D01*
X140326046Y-85445140D01*
X140465395Y-85352031D01*
X140620231Y-85287895D01*
X140784603Y-85255200D01*
X140952197Y-85255200D01*
X141116569Y-85287895D01*
G37*
G36*
X229364985Y-84957574D02*
G01*
X229468038Y-85000260D01*
X229510724Y-85017941D01*
X229641286Y-85105181D01*
X229641880Y-85105578D01*
X229753422Y-85217120D01*
X229753424Y-85217123D01*
X229841059Y-85348276D01*
X229841060Y-85348279D01*
X229901426Y-85494015D01*
X229932200Y-85648728D01*
X229932200Y-85806472D01*
X229901426Y-85961185D01*
X229876151Y-86022203D01*
X229841059Y-86106924D01*
X229774109Y-86207120D01*
X229753422Y-86238080D01*
X229641880Y-86349622D01*
X229641877Y-86349624D01*
X229510724Y-86437259D01*
X229468038Y-86454940D01*
X229364985Y-86497626D01*
X229210272Y-86528400D01*
X229052528Y-86528400D01*
X228897815Y-86497626D01*
X228794762Y-86454940D01*
X228752076Y-86437259D01*
X228620923Y-86349624D01*
X228620920Y-86349622D01*
X228509378Y-86238080D01*
X228488691Y-86207120D01*
X228421741Y-86106924D01*
X228386649Y-86022203D01*
X228361374Y-85961185D01*
X228330600Y-85806472D01*
X228330600Y-85648728D01*
X228361374Y-85494015D01*
X228421740Y-85348279D01*
X228421741Y-85348276D01*
X228509376Y-85217123D01*
X228509378Y-85217120D01*
X228620920Y-85105578D01*
X228621514Y-85105181D01*
X228752076Y-85017941D01*
X228794762Y-85000260D01*
X228897815Y-84957574D01*
X229052528Y-84926800D01*
X229210272Y-84926800D01*
X229364985Y-84957574D01*
G37*
G36*
X189946185Y-84624774D02*
G01*
X190049238Y-84667460D01*
X190091924Y-84685141D01*
X190222486Y-84772381D01*
X190223080Y-84772778D01*
X190334622Y-84884320D01*
X190334624Y-84884323D01*
X190422259Y-85015476D01*
X190423280Y-85017941D01*
X190482626Y-85161215D01*
X190513400Y-85315928D01*
X190513400Y-85473672D01*
X190482626Y-85628385D01*
X190474199Y-85648729D01*
X190422259Y-85774124D01*
X190335019Y-85904686D01*
X190334622Y-85905280D01*
X190223080Y-86016822D01*
X190223077Y-86016824D01*
X190091924Y-86104459D01*
X190049238Y-86122140D01*
X189946185Y-86164826D01*
X189791472Y-86195600D01*
X189633728Y-86195600D01*
X189479015Y-86164826D01*
X189375962Y-86122140D01*
X189333276Y-86104459D01*
X189202123Y-86016824D01*
X189202120Y-86016822D01*
X189090578Y-85905280D01*
X189090181Y-85904686D01*
X189002941Y-85774124D01*
X188951001Y-85648729D01*
X188942574Y-85628385D01*
X188911800Y-85473672D01*
X188911800Y-85315928D01*
X188942574Y-85161215D01*
X189001920Y-85017941D01*
X189002941Y-85015476D01*
X189090576Y-84884323D01*
X189090578Y-84884320D01*
X189202120Y-84772778D01*
X189202714Y-84772381D01*
X189333276Y-84685141D01*
X189375962Y-84667460D01*
X189479015Y-84624774D01*
X189633728Y-84594000D01*
X189791472Y-84594000D01*
X189946185Y-84624774D01*
G37*
G36*
X194826185Y-84624774D02*
G01*
X194929238Y-84667460D01*
X194971924Y-84685141D01*
X195102486Y-84772381D01*
X195103080Y-84772778D01*
X195214622Y-84884320D01*
X195214624Y-84884323D01*
X195302259Y-85015476D01*
X195303280Y-85017941D01*
X195362626Y-85161215D01*
X195393400Y-85315928D01*
X195393400Y-85473672D01*
X195362626Y-85628385D01*
X195354199Y-85648729D01*
X195302259Y-85774124D01*
X195215019Y-85904686D01*
X195214622Y-85905280D01*
X195103080Y-86016822D01*
X195103077Y-86016824D01*
X194971924Y-86104459D01*
X194929238Y-86122140D01*
X194826185Y-86164826D01*
X194671472Y-86195600D01*
X194513728Y-86195600D01*
X194359015Y-86164826D01*
X194255962Y-86122140D01*
X194213276Y-86104459D01*
X194082123Y-86016824D01*
X194082120Y-86016822D01*
X193970578Y-85905280D01*
X193970181Y-85904686D01*
X193882941Y-85774124D01*
X193831001Y-85648729D01*
X193822574Y-85628385D01*
X193791800Y-85473672D01*
X193791800Y-85315928D01*
X193822574Y-85161215D01*
X193881920Y-85017941D01*
X193882941Y-85015476D01*
X193970576Y-84884323D01*
X193970578Y-84884320D01*
X194082120Y-84772778D01*
X194082714Y-84772381D01*
X194213276Y-84685141D01*
X194255962Y-84667460D01*
X194359015Y-84624774D01*
X194513728Y-84594000D01*
X194671472Y-84594000D01*
X194826185Y-84624774D01*
G37*
G36*
X231144985Y-83937574D02*
G01*
X231220866Y-83969005D01*
X231290724Y-83997941D01*
X231421286Y-84085181D01*
X231421880Y-84085578D01*
X231533422Y-84197120D01*
X231533424Y-84197123D01*
X231621059Y-84328276D01*
X231621060Y-84328279D01*
X231681426Y-84474015D01*
X231712200Y-84628728D01*
X231712200Y-84786472D01*
X231681426Y-84941185D01*
X231638740Y-85044238D01*
X231621059Y-85086924D01*
X231534063Y-85217120D01*
X231533422Y-85218080D01*
X231421880Y-85329622D01*
X231421877Y-85329624D01*
X231290724Y-85417259D01*
X231248038Y-85434940D01*
X231144985Y-85477626D01*
X230990272Y-85508400D01*
X230832528Y-85508400D01*
X230677815Y-85477626D01*
X230574762Y-85434940D01*
X230532076Y-85417259D01*
X230400923Y-85329624D01*
X230400920Y-85329622D01*
X230289378Y-85218080D01*
X230288737Y-85217120D01*
X230201741Y-85086924D01*
X230184060Y-85044238D01*
X230141374Y-84941185D01*
X230110600Y-84786472D01*
X230110600Y-84628728D01*
X230141374Y-84474015D01*
X230201740Y-84328279D01*
X230201741Y-84328276D01*
X230289376Y-84197123D01*
X230289378Y-84197120D01*
X230400920Y-84085578D01*
X230401514Y-84085181D01*
X230532076Y-83997941D01*
X230601934Y-83969005D01*
X230677815Y-83937574D01*
X230832528Y-83906800D01*
X230990272Y-83906800D01*
X231144985Y-83937574D01*
G37*
G36*
X216148169Y-83215255D02*
G01*
X216303005Y-83279391D01*
X216442354Y-83372500D01*
X216560860Y-83491006D01*
X216653969Y-83630355D01*
X216718105Y-83785191D01*
X216750800Y-83949563D01*
X216750800Y-84117157D01*
X216718105Y-84281529D01*
X216653969Y-84436365D01*
X216560860Y-84575714D01*
X216442354Y-84694220D01*
X216303005Y-84787329D01*
X216148169Y-84851465D01*
X215983797Y-84884160D01*
X215816203Y-84884160D01*
X215651831Y-84851465D01*
X215496995Y-84787329D01*
X215357646Y-84694220D01*
X215239140Y-84575714D01*
X215146031Y-84436365D01*
X215081895Y-84281529D01*
X215049200Y-84117157D01*
X215049200Y-83949563D01*
X215081895Y-83785191D01*
X215146031Y-83630355D01*
X215239140Y-83491006D01*
X215357646Y-83372500D01*
X215496995Y-83279391D01*
X215651831Y-83215255D01*
X215816203Y-83182560D01*
X215983797Y-83182560D01*
X216148169Y-83215255D01*
G37*
G36*
X208528169Y-83215255D02*
G01*
X208683005Y-83279391D01*
X208822354Y-83372500D01*
X208940860Y-83491006D01*
X209033969Y-83630355D01*
X209098105Y-83785191D01*
X209130800Y-83949563D01*
X209130800Y-84117157D01*
X209098105Y-84281529D01*
X209033969Y-84436365D01*
X208940860Y-84575714D01*
X208822354Y-84694220D01*
X208683005Y-84787329D01*
X208528169Y-84851465D01*
X208363797Y-84884160D01*
X208196203Y-84884160D01*
X208031831Y-84851465D01*
X207876995Y-84787329D01*
X207737646Y-84694220D01*
X207619140Y-84575714D01*
X207526031Y-84436365D01*
X207461895Y-84281529D01*
X207429200Y-84117157D01*
X207429200Y-83949563D01*
X207461895Y-83785191D01*
X207526031Y-83630355D01*
X207619140Y-83491006D01*
X207737646Y-83372500D01*
X207876995Y-83279391D01*
X208031831Y-83215255D01*
X208196203Y-83182560D01*
X208363797Y-83182560D01*
X208528169Y-83215255D01*
G37*
G36*
X229364985Y-82917574D02*
G01*
X229468038Y-82960260D01*
X229510724Y-82977941D01*
X229641286Y-83065181D01*
X229641880Y-83065578D01*
X229753422Y-83177120D01*
X229753424Y-83177123D01*
X229841059Y-83308276D01*
X229858740Y-83350962D01*
X229901426Y-83454015D01*
X229932200Y-83608728D01*
X229932200Y-83766472D01*
X229901426Y-83921185D01*
X229858740Y-84024238D01*
X229841059Y-84066924D01*
X229754063Y-84197120D01*
X229753422Y-84198080D01*
X229641880Y-84309622D01*
X229641877Y-84309624D01*
X229510724Y-84397259D01*
X229468038Y-84414940D01*
X229364985Y-84457626D01*
X229210272Y-84488400D01*
X229052528Y-84488400D01*
X228897815Y-84457626D01*
X228794762Y-84414940D01*
X228752076Y-84397259D01*
X228620923Y-84309624D01*
X228620920Y-84309622D01*
X228509378Y-84198080D01*
X228508737Y-84197120D01*
X228421741Y-84066924D01*
X228404060Y-84024238D01*
X228361374Y-83921185D01*
X228330600Y-83766472D01*
X228330600Y-83608728D01*
X228361374Y-83454015D01*
X228404060Y-83350962D01*
X228421741Y-83308276D01*
X228509376Y-83177123D01*
X228509378Y-83177120D01*
X228620920Y-83065578D01*
X228621514Y-83065181D01*
X228752076Y-82977941D01*
X228794762Y-82960260D01*
X228897815Y-82917574D01*
X229052528Y-82886800D01*
X229210272Y-82886800D01*
X229364985Y-82917574D01*
G37*
G36*
X141116569Y-82747895D02*
G01*
X141271405Y-82812031D01*
X141410754Y-82905140D01*
X141529260Y-83023646D01*
X141622369Y-83162995D01*
X141686505Y-83317831D01*
X141719200Y-83482203D01*
X141719200Y-83649797D01*
X141686505Y-83814169D01*
X141622369Y-83969005D01*
X141529260Y-84108354D01*
X141410754Y-84226860D01*
X141271405Y-84319969D01*
X141116569Y-84384105D01*
X140952197Y-84416800D01*
X140784603Y-84416800D01*
X140620231Y-84384105D01*
X140465395Y-84319969D01*
X140326046Y-84226860D01*
X140207540Y-84108354D01*
X140114431Y-83969005D01*
X140050295Y-83814169D01*
X140017600Y-83649797D01*
X140017600Y-83482203D01*
X140050295Y-83317831D01*
X140114431Y-83162995D01*
X140207540Y-83023646D01*
X140326046Y-82905140D01*
X140465395Y-82812031D01*
X140620231Y-82747895D01*
X140784603Y-82715200D01*
X140952197Y-82715200D01*
X141116569Y-82747895D01*
G37*
G36*
X156356569Y-82747895D02*
G01*
X156511405Y-82812031D01*
X156650754Y-82905140D01*
X156769260Y-83023646D01*
X156862369Y-83162995D01*
X156926505Y-83317831D01*
X156959200Y-83482203D01*
X156959200Y-83649797D01*
X156926505Y-83814169D01*
X156862369Y-83969005D01*
X156769260Y-84108354D01*
X156650754Y-84226860D01*
X156511405Y-84319969D01*
X156356569Y-84384105D01*
X156192197Y-84416800D01*
X156024603Y-84416800D01*
X155860231Y-84384105D01*
X155705395Y-84319969D01*
X155566046Y-84226860D01*
X155447540Y-84108354D01*
X155354431Y-83969005D01*
X155290295Y-83814169D01*
X155257600Y-83649797D01*
X155257600Y-83482203D01*
X155290295Y-83317831D01*
X155354431Y-83162995D01*
X155447540Y-83023646D01*
X155566046Y-82905140D01*
X155705395Y-82812031D01*
X155860231Y-82747895D01*
X156024603Y-82715200D01*
X156192197Y-82715200D01*
X156356569Y-82747895D01*
G37*
G36*
X231144985Y-81897574D02*
G01*
X231248038Y-81940260D01*
X231290724Y-81957941D01*
X231421286Y-82045181D01*
X231421880Y-82045578D01*
X231533422Y-82157120D01*
X231533424Y-82157123D01*
X231621059Y-82288276D01*
X231621060Y-82288279D01*
X231681426Y-82434015D01*
X231712200Y-82588728D01*
X231712200Y-82746472D01*
X231681426Y-82901185D01*
X231638740Y-83004238D01*
X231621059Y-83046924D01*
X231543502Y-83162995D01*
X231533422Y-83178080D01*
X231421880Y-83289622D01*
X231421877Y-83289624D01*
X231290724Y-83377259D01*
X231248038Y-83394940D01*
X231144985Y-83437626D01*
X230990272Y-83468400D01*
X230832528Y-83468400D01*
X230677815Y-83437626D01*
X230574762Y-83394940D01*
X230532076Y-83377259D01*
X230400923Y-83289624D01*
X230400920Y-83289622D01*
X230289378Y-83178080D01*
X230279298Y-83162995D01*
X230201741Y-83046924D01*
X230184060Y-83004238D01*
X230141374Y-82901185D01*
X230110600Y-82746472D01*
X230110600Y-82588728D01*
X230141374Y-82434015D01*
X230201740Y-82288279D01*
X230201741Y-82288276D01*
X230289376Y-82157123D01*
X230289378Y-82157120D01*
X230400920Y-82045578D01*
X230401514Y-82045181D01*
X230532076Y-81957941D01*
X230574762Y-81940260D01*
X230677815Y-81897574D01*
X230832528Y-81866800D01*
X230990272Y-81866800D01*
X231144985Y-81897574D01*
G37*
G36*
X229364985Y-80877574D02*
G01*
X229468038Y-80920260D01*
X229510724Y-80937941D01*
X229641286Y-81025181D01*
X229641880Y-81025578D01*
X229753422Y-81137120D01*
X229753424Y-81137123D01*
X229841059Y-81268276D01*
X229841060Y-81268279D01*
X229901426Y-81414015D01*
X229932200Y-81568728D01*
X229932200Y-81726472D01*
X229901426Y-81881185D01*
X229858740Y-81984238D01*
X229841059Y-82026924D01*
X229754063Y-82157120D01*
X229753422Y-82158080D01*
X229641880Y-82269622D01*
X229641877Y-82269624D01*
X229510724Y-82357259D01*
X229468038Y-82374940D01*
X229364985Y-82417626D01*
X229210272Y-82448400D01*
X229052528Y-82448400D01*
X228897815Y-82417626D01*
X228794762Y-82374940D01*
X228752076Y-82357259D01*
X228620923Y-82269624D01*
X228620920Y-82269622D01*
X228509378Y-82158080D01*
X228508737Y-82157120D01*
X228421741Y-82026924D01*
X228404060Y-81984238D01*
X228361374Y-81881185D01*
X228330600Y-81726472D01*
X228330600Y-81568728D01*
X228361374Y-81414015D01*
X228421740Y-81268279D01*
X228421741Y-81268276D01*
X228509376Y-81137123D01*
X228509378Y-81137120D01*
X228620920Y-81025578D01*
X228621514Y-81025181D01*
X228752076Y-80937941D01*
X228794762Y-80920260D01*
X228897815Y-80877574D01*
X229052528Y-80846800D01*
X229210272Y-80846800D01*
X229364985Y-80877574D01*
G37*
G36*
X156356569Y-80207895D02*
G01*
X156511405Y-80272031D01*
X156650754Y-80365140D01*
X156769260Y-80483646D01*
X156862369Y-80622995D01*
X156926505Y-80777831D01*
X156959200Y-80942203D01*
X156959200Y-81109797D01*
X156926505Y-81274169D01*
X156862369Y-81429005D01*
X156769260Y-81568354D01*
X156650754Y-81686860D01*
X156511405Y-81779969D01*
X156356569Y-81844105D01*
X156192197Y-81876800D01*
X156024603Y-81876800D01*
X155860231Y-81844105D01*
X155705395Y-81779969D01*
X155566046Y-81686860D01*
X155447540Y-81568354D01*
X155354431Y-81429005D01*
X155290295Y-81274169D01*
X155257600Y-81109797D01*
X155257600Y-80942203D01*
X155290295Y-80777831D01*
X155354431Y-80622995D01*
X155447540Y-80483646D01*
X155566046Y-80365140D01*
X155705395Y-80272031D01*
X155860231Y-80207895D01*
X156024603Y-80175200D01*
X156192197Y-80175200D01*
X156356569Y-80207895D01*
G37*
G36*
X141116569Y-80207895D02*
G01*
X141271405Y-80272031D01*
X141410754Y-80365140D01*
X141529260Y-80483646D01*
X141622369Y-80622995D01*
X141686505Y-80777831D01*
X141719200Y-80942203D01*
X141719200Y-81109797D01*
X141686505Y-81274169D01*
X141622369Y-81429005D01*
X141529260Y-81568354D01*
X141410754Y-81686860D01*
X141271405Y-81779969D01*
X141116569Y-81844105D01*
X140952197Y-81876800D01*
X140784603Y-81876800D01*
X140620231Y-81844105D01*
X140465395Y-81779969D01*
X140326046Y-81686860D01*
X140207540Y-81568354D01*
X140114431Y-81429005D01*
X140050295Y-81274169D01*
X140017600Y-81109797D01*
X140017600Y-80942203D01*
X140050295Y-80777831D01*
X140114431Y-80622995D01*
X140207540Y-80483646D01*
X140326046Y-80365140D01*
X140465395Y-80272031D01*
X140620231Y-80207895D01*
X140784603Y-80175200D01*
X140952197Y-80175200D01*
X141116569Y-80207895D01*
G37*
G36*
X231144985Y-79857574D02*
G01*
X231248038Y-79900260D01*
X231290724Y-79917941D01*
X231421286Y-80005181D01*
X231421880Y-80005578D01*
X231533422Y-80117120D01*
X231533424Y-80117123D01*
X231621059Y-80248276D01*
X231630899Y-80272032D01*
X231681426Y-80394015D01*
X231712200Y-80548728D01*
X231712200Y-80706472D01*
X231681426Y-80861185D01*
X231647867Y-80942203D01*
X231621059Y-81006924D01*
X231552321Y-81109796D01*
X231533422Y-81138080D01*
X231421880Y-81249622D01*
X231421877Y-81249624D01*
X231290724Y-81337259D01*
X231248038Y-81354940D01*
X231144985Y-81397626D01*
X230990272Y-81428400D01*
X230832528Y-81428400D01*
X230677815Y-81397626D01*
X230574762Y-81354940D01*
X230532076Y-81337259D01*
X230400923Y-81249624D01*
X230400920Y-81249622D01*
X230289378Y-81138080D01*
X230270479Y-81109796D01*
X230201741Y-81006924D01*
X230174933Y-80942203D01*
X230141374Y-80861185D01*
X230110600Y-80706472D01*
X230110600Y-80548728D01*
X230141374Y-80394015D01*
X230191901Y-80272032D01*
X230201741Y-80248276D01*
X230289376Y-80117123D01*
X230289378Y-80117120D01*
X230400920Y-80005578D01*
X230401514Y-80005181D01*
X230532076Y-79917941D01*
X230574762Y-79900260D01*
X230677815Y-79857574D01*
X230832528Y-79826800D01*
X230990272Y-79826800D01*
X231144985Y-79857574D01*
G37*
G36*
X231712200Y-79388400D02*
G01*
X230059036Y-79388400D01*
X230034260Y-79390840D01*
X230010436Y-79398067D01*
X229988479Y-79409803D01*
X229969234Y-79425597D01*
X229953440Y-79444842D01*
X229941704Y-79466799D01*
X229934477Y-79490623D01*
X229932037Y-79515399D01*
X229932200Y-79517057D01*
X229932200Y-79686472D01*
X229901426Y-79841185D01*
X229858740Y-79944238D01*
X229841059Y-79986924D01*
X229754063Y-80117120D01*
X229753422Y-80118080D01*
X229641880Y-80229622D01*
X229641877Y-80229624D01*
X229510724Y-80317259D01*
X229468038Y-80334940D01*
X229364985Y-80377626D01*
X229210272Y-80408400D01*
X229052528Y-80408400D01*
X228897815Y-80377626D01*
X228794762Y-80334940D01*
X228752076Y-80317259D01*
X228620923Y-80229624D01*
X228620920Y-80229622D01*
X228509378Y-80118080D01*
X228508737Y-80117120D01*
X228421741Y-79986924D01*
X228404060Y-79944238D01*
X228361374Y-79841185D01*
X228330600Y-79686472D01*
X228330600Y-79528728D01*
X228361374Y-79374015D01*
X228421740Y-79228279D01*
X228421741Y-79228276D01*
X228509376Y-79097123D01*
X228509378Y-79097120D01*
X228620920Y-78985578D01*
X228621514Y-78985181D01*
X228752076Y-78897941D01*
X228794762Y-78880260D01*
X228897815Y-78837574D01*
X229052528Y-78806800D01*
X229210272Y-78806800D01*
X229364985Y-78837574D01*
X229468038Y-78880260D01*
X229510724Y-78897941D01*
X229641286Y-78985181D01*
X229641880Y-78985578D01*
X229753422Y-79097120D01*
X229753424Y-79097123D01*
X229841059Y-79228276D01*
X229866269Y-79289139D01*
X229878005Y-79311096D01*
X229893799Y-79330341D01*
X229913044Y-79346135D01*
X229935000Y-79357871D01*
X229958825Y-79365098D01*
X229983601Y-79367538D01*
X230008377Y-79365098D01*
X230032201Y-79357871D01*
X230054158Y-79346135D01*
X230073403Y-79330341D01*
X230089197Y-79311096D01*
X230100933Y-79289140D01*
X230108160Y-79265315D01*
X230110600Y-79240539D01*
X230110600Y-77786800D01*
X231712200Y-77786800D01*
X231712200Y-79388400D01*
G37*
G36*
X163168700Y-79386800D02*
G01*
X161367100Y-79386800D01*
X161367100Y-77585200D01*
X163168700Y-77585200D01*
X163168700Y-79386800D01*
G37*
G36*
X160628700Y-79386800D02*
G01*
X158827100Y-79386800D01*
X158827100Y-77585200D01*
X160628700Y-77585200D01*
X160628700Y-79386800D01*
G37*
G36*
X156356569Y-77667895D02*
G01*
X156511405Y-77732031D01*
X156650754Y-77825140D01*
X156769260Y-77943646D01*
X156862369Y-78082995D01*
X156926505Y-78237831D01*
X156959200Y-78402203D01*
X156959200Y-78569797D01*
X156926505Y-78734169D01*
X156862369Y-78889005D01*
X156769260Y-79028354D01*
X156650754Y-79146860D01*
X156511405Y-79239969D01*
X156356569Y-79304105D01*
X156192197Y-79336800D01*
X156024603Y-79336800D01*
X155860231Y-79304105D01*
X155705395Y-79239969D01*
X155566046Y-79146860D01*
X155447540Y-79028354D01*
X155354431Y-78889005D01*
X155290295Y-78734169D01*
X155257600Y-78569797D01*
X155257600Y-78402203D01*
X155290295Y-78237831D01*
X155354431Y-78082995D01*
X155447540Y-77943646D01*
X155566046Y-77825140D01*
X155705395Y-77732031D01*
X155860231Y-77667895D01*
X156024603Y-77635200D01*
X156192197Y-77635200D01*
X156356569Y-77667895D01*
G37*
G36*
X141116569Y-77667895D02*
G01*
X141271405Y-77732031D01*
X141410754Y-77825140D01*
X141529260Y-77943646D01*
X141622369Y-78082995D01*
X141686505Y-78237831D01*
X141719200Y-78402203D01*
X141719200Y-78569797D01*
X141686505Y-78734169D01*
X141622369Y-78889005D01*
X141529260Y-79028354D01*
X141410754Y-79146860D01*
X141271405Y-79239969D01*
X141116569Y-79304105D01*
X140952197Y-79336800D01*
X140784603Y-79336800D01*
X140620231Y-79304105D01*
X140465395Y-79239969D01*
X140326046Y-79146860D01*
X140207540Y-79028354D01*
X140114431Y-78889005D01*
X140050295Y-78734169D01*
X140017600Y-78569797D01*
X140017600Y-78402203D01*
X140050295Y-78237831D01*
X140114431Y-78082995D01*
X140207540Y-77943646D01*
X140326046Y-77825140D01*
X140465395Y-77732031D01*
X140620231Y-77667895D01*
X140784603Y-77635200D01*
X140952197Y-77635200D01*
X141116569Y-77667895D01*
G37*
G36*
X224544985Y-76807574D02*
G01*
X224639685Y-76846800D01*
X224690724Y-76867941D01*
X224821286Y-76955181D01*
X224821880Y-76955578D01*
X224933422Y-77067120D01*
X224933424Y-77067123D01*
X225021059Y-77198276D01*
X225021060Y-77198279D01*
X225081426Y-77344015D01*
X225112200Y-77498728D01*
X225112200Y-77656472D01*
X225081426Y-77811185D01*
X225075645Y-77825141D01*
X225021059Y-77956924D01*
X224936820Y-78082995D01*
X224933422Y-78088080D01*
X224821880Y-78199622D01*
X224821877Y-78199624D01*
X224690724Y-78287259D01*
X224648038Y-78304940D01*
X224544985Y-78347626D01*
X224390272Y-78378400D01*
X224232528Y-78378400D01*
X224077815Y-78347626D01*
X223974762Y-78304940D01*
X223932076Y-78287259D01*
X223800923Y-78199624D01*
X223800920Y-78199622D01*
X223689378Y-78088080D01*
X223685980Y-78082995D01*
X223601741Y-77956924D01*
X223547155Y-77825141D01*
X223541374Y-77811185D01*
X223510600Y-77656472D01*
X223510600Y-77498728D01*
X223541374Y-77344015D01*
X223601740Y-77198279D01*
X223601741Y-77198276D01*
X223689376Y-77067123D01*
X223689378Y-77067120D01*
X223800920Y-76955578D01*
X223801514Y-76955181D01*
X223932076Y-76867941D01*
X223983115Y-76846800D01*
X224077815Y-76807574D01*
X224232528Y-76776800D01*
X224390272Y-76776800D01*
X224544985Y-76807574D01*
G37*
G36*
X233778333Y-74154001D02*
G01*
X233940214Y-74186201D01*
X234245188Y-74312525D01*
X234519660Y-74495922D01*
X234753078Y-74729340D01*
X234936475Y-75003812D01*
X235062799Y-75308786D01*
X235075328Y-75371773D01*
X235127200Y-75632548D01*
X235127200Y-75962652D01*
X235112864Y-76034721D01*
X235062799Y-76286414D01*
X234936475Y-76591388D01*
X234753078Y-76865860D01*
X234519660Y-77099278D01*
X234245188Y-77282675D01*
X233940214Y-77408999D01*
X233778332Y-77441200D01*
X233616452Y-77473400D01*
X233286348Y-77473400D01*
X233124468Y-77441200D01*
X232962586Y-77408999D01*
X232657612Y-77282675D01*
X232383140Y-77099278D01*
X232149722Y-76865860D01*
X231966325Y-76591388D01*
X231840001Y-76286414D01*
X231789936Y-76034721D01*
X231775600Y-75962652D01*
X231775600Y-75632548D01*
X231827472Y-75371773D01*
X231840001Y-75308786D01*
X231966325Y-75003812D01*
X232149722Y-74729340D01*
X232383140Y-74495922D01*
X232657612Y-74312525D01*
X232962586Y-74186201D01*
X233124468Y-74154000D01*
X233286348Y-74121800D01*
X233616452Y-74121800D01*
X233778333Y-74154001D01*
G37*
G36*
X216148169Y-75595255D02*
G01*
X216303005Y-75659391D01*
X216442354Y-75752500D01*
X216560860Y-75871006D01*
X216653969Y-76010355D01*
X216718105Y-76165191D01*
X216750800Y-76329563D01*
X216750800Y-76497157D01*
X216718105Y-76661529D01*
X216653969Y-76816365D01*
X216560860Y-76955714D01*
X216442354Y-77074220D01*
X216303005Y-77167329D01*
X216148169Y-77231465D01*
X215983797Y-77264160D01*
X215816203Y-77264160D01*
X215651831Y-77231465D01*
X215496995Y-77167329D01*
X215357646Y-77074220D01*
X215239140Y-76955714D01*
X215146031Y-76816365D01*
X215081895Y-76661529D01*
X215049200Y-76497157D01*
X215049200Y-76329563D01*
X215081895Y-76165191D01*
X215146031Y-76010355D01*
X215239140Y-75871006D01*
X215357646Y-75752500D01*
X215496995Y-75659391D01*
X215651831Y-75595255D01*
X215816203Y-75562560D01*
X215983797Y-75562560D01*
X216148169Y-75595255D01*
G37*
G36*
X208528169Y-75595255D02*
G01*
X208683005Y-75659391D01*
X208822354Y-75752500D01*
X208940860Y-75871006D01*
X209033969Y-76010355D01*
X209098105Y-76165191D01*
X209130800Y-76329563D01*
X209130800Y-76497157D01*
X209098105Y-76661529D01*
X209033969Y-76816365D01*
X208940860Y-76955714D01*
X208822354Y-77074220D01*
X208683005Y-77167329D01*
X208528169Y-77231465D01*
X208363797Y-77264160D01*
X208196203Y-77264160D01*
X208031831Y-77231465D01*
X207876995Y-77167329D01*
X207737646Y-77074220D01*
X207619140Y-76955714D01*
X207526031Y-76816365D01*
X207461895Y-76661529D01*
X207429200Y-76497157D01*
X207429200Y-76329563D01*
X207461895Y-76165191D01*
X207526031Y-76010355D01*
X207619140Y-75871006D01*
X207737646Y-75752500D01*
X207876995Y-75659391D01*
X208031831Y-75595255D01*
X208196203Y-75562560D01*
X208363797Y-75562560D01*
X208528169Y-75595255D01*
G37*
G36*
X159990654Y-75079817D02*
G01*
X160154589Y-75147721D01*
X160302127Y-75246303D01*
X160427597Y-75371773D01*
X160526179Y-75519311D01*
X160594083Y-75683246D01*
X160628700Y-75857279D01*
X160628700Y-76034721D01*
X160594083Y-76208754D01*
X160526179Y-76372689D01*
X160427597Y-76520227D01*
X160302127Y-76645697D01*
X160154589Y-76744279D01*
X159990654Y-76812183D01*
X159816621Y-76846800D01*
X159639179Y-76846800D01*
X159465146Y-76812183D01*
X159301211Y-76744279D01*
X159153673Y-76645697D01*
X159028203Y-76520227D01*
X158929621Y-76372689D01*
X158861717Y-76208754D01*
X158827100Y-76034721D01*
X158827100Y-75857279D01*
X158861717Y-75683246D01*
X158929621Y-75519311D01*
X159028203Y-75371773D01*
X159153673Y-75246303D01*
X159301211Y-75147721D01*
X159465146Y-75079817D01*
X159639179Y-75045200D01*
X159816621Y-75045200D01*
X159990654Y-75079817D01*
G37*
G36*
X162530654Y-75079817D02*
G01*
X162694589Y-75147721D01*
X162842127Y-75246303D01*
X162967597Y-75371773D01*
X163066179Y-75519311D01*
X163134083Y-75683246D01*
X163168700Y-75857279D01*
X163168700Y-76034721D01*
X163134083Y-76208754D01*
X163066179Y-76372689D01*
X162967597Y-76520227D01*
X162842127Y-76645697D01*
X162694589Y-76744279D01*
X162530654Y-76812183D01*
X162356621Y-76846800D01*
X162179179Y-76846800D01*
X162005146Y-76812183D01*
X161841211Y-76744279D01*
X161693673Y-76645697D01*
X161568203Y-76520227D01*
X161469621Y-76372689D01*
X161401717Y-76208754D01*
X161367100Y-76034721D01*
X161367100Y-75857279D01*
X161401717Y-75683246D01*
X161469621Y-75519311D01*
X161568203Y-75371773D01*
X161693673Y-75246303D01*
X161841211Y-75147721D01*
X162005146Y-75079817D01*
X162179179Y-75045200D01*
X162356621Y-75045200D01*
X162530654Y-75079817D01*
G37*
G36*
X156356569Y-75127895D02*
G01*
X156511405Y-75192031D01*
X156650754Y-75285140D01*
X156769260Y-75403646D01*
X156862369Y-75542995D01*
X156926505Y-75697831D01*
X156959200Y-75862203D01*
X156959200Y-76029797D01*
X156926505Y-76194169D01*
X156862369Y-76349005D01*
X156769260Y-76488354D01*
X156650754Y-76606860D01*
X156511405Y-76699969D01*
X156356569Y-76764105D01*
X156192197Y-76796800D01*
X156024603Y-76796800D01*
X155860231Y-76764105D01*
X155705395Y-76699969D01*
X155566046Y-76606860D01*
X155447540Y-76488354D01*
X155354431Y-76349005D01*
X155290295Y-76194169D01*
X155257600Y-76029797D01*
X155257600Y-75862203D01*
X155290295Y-75697831D01*
X155354431Y-75542995D01*
X155447540Y-75403646D01*
X155566046Y-75285140D01*
X155705395Y-75192031D01*
X155860231Y-75127895D01*
X156024603Y-75095200D01*
X156192197Y-75095200D01*
X156356569Y-75127895D01*
G37*
G36*
X141116569Y-75127895D02*
G01*
X141271405Y-75192031D01*
X141410754Y-75285140D01*
X141529260Y-75403646D01*
X141622369Y-75542995D01*
X141686505Y-75697831D01*
X141719200Y-75862203D01*
X141719200Y-76029797D01*
X141686505Y-76194169D01*
X141622369Y-76349005D01*
X141529260Y-76488354D01*
X141410754Y-76606860D01*
X141271405Y-76699969D01*
X141116569Y-76764105D01*
X140952197Y-76796800D01*
X140784603Y-76796800D01*
X140620231Y-76764105D01*
X140465395Y-76699969D01*
X140326046Y-76606860D01*
X140207540Y-76488354D01*
X140114431Y-76349005D01*
X140050295Y-76194169D01*
X140017600Y-76029797D01*
X140017600Y-75862203D01*
X140050295Y-75697831D01*
X140114431Y-75542995D01*
X140207540Y-75403646D01*
X140326046Y-75285140D01*
X140465395Y-75192031D01*
X140620231Y-75127895D01*
X140784603Y-75095200D01*
X140952197Y-75095200D01*
X141116569Y-75127895D01*
G37*
G36*
X224544985Y-74517574D02*
G01*
X224648038Y-74560260D01*
X224690724Y-74577941D01*
X224764637Y-74627329D01*
X224821880Y-74665578D01*
X224933422Y-74777120D01*
X224933424Y-74777123D01*
X225021059Y-74908276D01*
X225021060Y-74908279D01*
X225081426Y-75054015D01*
X225112200Y-75208728D01*
X225112200Y-75366472D01*
X225081426Y-75521185D01*
X225072392Y-75542995D01*
X225021059Y-75666924D01*
X224963878Y-75752500D01*
X224933422Y-75798080D01*
X224821880Y-75909622D01*
X224821877Y-75909624D01*
X224690724Y-75997259D01*
X224659107Y-76010355D01*
X224544985Y-76057626D01*
X224390272Y-76088400D01*
X224232528Y-76088400D01*
X224077815Y-76057626D01*
X223963693Y-76010355D01*
X223932076Y-75997259D01*
X223800923Y-75909624D01*
X223800920Y-75909622D01*
X223689378Y-75798080D01*
X223658922Y-75752500D01*
X223601741Y-75666924D01*
X223550408Y-75542995D01*
X223541374Y-75521185D01*
X223510600Y-75366472D01*
X223510600Y-75208728D01*
X223541374Y-75054015D01*
X223601740Y-74908279D01*
X223601741Y-74908276D01*
X223689376Y-74777123D01*
X223689378Y-74777120D01*
X223800920Y-74665578D01*
X223858163Y-74627329D01*
X223932076Y-74577941D01*
X223974762Y-74560260D01*
X224077815Y-74517574D01*
X224232528Y-74486800D01*
X224390272Y-74486800D01*
X224544985Y-74517574D01*
G37*
G36*
X230327907Y-73007182D02*
G01*
X230519140Y-73086393D01*
X230691246Y-73201391D01*
X230837609Y-73347754D01*
X230952607Y-73519860D01*
X231031818Y-73711093D01*
X231072200Y-73914105D01*
X231072200Y-74121095D01*
X231031818Y-74324107D01*
X230952607Y-74515340D01*
X230837609Y-74687446D01*
X230691246Y-74833809D01*
X230519140Y-74948807D01*
X230327907Y-75028018D01*
X230124895Y-75068400D01*
X229917905Y-75068400D01*
X229714893Y-75028018D01*
X229523660Y-74948807D01*
X229351554Y-74833809D01*
X229205191Y-74687446D01*
X229090193Y-74515340D01*
X229010982Y-74324107D01*
X228970600Y-74121095D01*
X228970600Y-73914105D01*
X229010982Y-73711093D01*
X229090193Y-73519860D01*
X229205191Y-73347754D01*
X229351554Y-73201391D01*
X229523660Y-73086393D01*
X229714893Y-73007182D01*
X229917905Y-72966800D01*
X230124895Y-72966800D01*
X230327907Y-73007182D01*
G37*
G36*
X208528169Y-73055255D02*
G01*
X208683005Y-73119391D01*
X208822354Y-73212500D01*
X208940860Y-73331006D01*
X209033969Y-73470355D01*
X209098105Y-73625191D01*
X209130800Y-73789563D01*
X209130800Y-73957157D01*
X209098105Y-74121529D01*
X209033969Y-74276365D01*
X208940860Y-74415714D01*
X208822354Y-74534220D01*
X208683005Y-74627329D01*
X208528169Y-74691465D01*
X208363797Y-74724160D01*
X208196203Y-74724160D01*
X208031831Y-74691465D01*
X207876995Y-74627329D01*
X207737646Y-74534220D01*
X207619140Y-74415714D01*
X207526031Y-74276365D01*
X207461895Y-74121529D01*
X207429200Y-73957157D01*
X207429200Y-73789563D01*
X207461895Y-73625191D01*
X207526031Y-73470355D01*
X207619140Y-73331006D01*
X207737646Y-73212500D01*
X207876995Y-73119391D01*
X208031831Y-73055255D01*
X208196203Y-73022560D01*
X208363797Y-73022560D01*
X208528169Y-73055255D01*
G37*
G36*
X216148169Y-73055255D02*
G01*
X216303005Y-73119391D01*
X216442354Y-73212500D01*
X216560860Y-73331006D01*
X216653969Y-73470355D01*
X216718105Y-73625191D01*
X216750800Y-73789563D01*
X216750800Y-73957157D01*
X216718105Y-74121529D01*
X216653969Y-74276365D01*
X216560860Y-74415714D01*
X216442354Y-74534220D01*
X216303005Y-74627329D01*
X216148169Y-74691465D01*
X215983797Y-74724160D01*
X215816203Y-74724160D01*
X215651831Y-74691465D01*
X215496995Y-74627329D01*
X215357646Y-74534220D01*
X215239140Y-74415714D01*
X215146031Y-74276365D01*
X215081895Y-74121529D01*
X215049200Y-73957157D01*
X215049200Y-73789563D01*
X215081895Y-73625191D01*
X215146031Y-73470355D01*
X215239140Y-73331006D01*
X215357646Y-73212500D01*
X215496995Y-73119391D01*
X215651831Y-73055255D01*
X215816203Y-73022560D01*
X215983797Y-73022560D01*
X216148169Y-73055255D01*
G37*
G36*
X162530654Y-72539817D02*
G01*
X162694589Y-72607721D01*
X162842127Y-72706303D01*
X162967597Y-72831773D01*
X163066179Y-72979311D01*
X163134083Y-73143246D01*
X163168700Y-73317279D01*
X163168700Y-73494721D01*
X163134083Y-73668754D01*
X163066179Y-73832689D01*
X162967597Y-73980227D01*
X162842127Y-74105697D01*
X162694589Y-74204279D01*
X162530654Y-74272183D01*
X162356621Y-74306800D01*
X162179179Y-74306800D01*
X162005146Y-74272183D01*
X161841211Y-74204279D01*
X161693673Y-74105697D01*
X161568203Y-73980227D01*
X161469621Y-73832689D01*
X161401717Y-73668754D01*
X161367100Y-73494721D01*
X161367100Y-73317279D01*
X161401717Y-73143246D01*
X161469621Y-72979311D01*
X161568203Y-72831773D01*
X161693673Y-72706303D01*
X161841211Y-72607721D01*
X162005146Y-72539817D01*
X162179179Y-72505200D01*
X162356621Y-72505200D01*
X162530654Y-72539817D01*
G37*
G36*
X159990654Y-72539817D02*
G01*
X160154589Y-72607721D01*
X160302127Y-72706303D01*
X160427597Y-72831773D01*
X160526179Y-72979311D01*
X160594083Y-73143246D01*
X160628700Y-73317279D01*
X160628700Y-73494721D01*
X160594083Y-73668754D01*
X160526179Y-73832689D01*
X160427597Y-73980227D01*
X160302127Y-74105697D01*
X160154589Y-74204279D01*
X159990654Y-74272183D01*
X159816621Y-74306800D01*
X159639179Y-74306800D01*
X159465146Y-74272183D01*
X159301211Y-74204279D01*
X159153673Y-74105697D01*
X159028203Y-73980227D01*
X158929621Y-73832689D01*
X158861717Y-73668754D01*
X158827100Y-73494721D01*
X158827100Y-73317279D01*
X158861717Y-73143246D01*
X158929621Y-72979311D01*
X159028203Y-72831773D01*
X159153673Y-72706303D01*
X159301211Y-72607721D01*
X159465146Y-72539817D01*
X159639179Y-72505200D01*
X159816621Y-72505200D01*
X159990654Y-72539817D01*
G37*
G36*
X141116569Y-72587895D02*
G01*
X141271405Y-72652031D01*
X141410754Y-72745140D01*
X141529260Y-72863646D01*
X141622369Y-73002995D01*
X141686505Y-73157831D01*
X141719200Y-73322203D01*
X141719200Y-73489797D01*
X141686505Y-73654169D01*
X141622369Y-73809005D01*
X141529260Y-73948354D01*
X141410754Y-74066860D01*
X141271405Y-74159969D01*
X141116569Y-74224105D01*
X140952197Y-74256800D01*
X140784603Y-74256800D01*
X140620231Y-74224105D01*
X140465395Y-74159969D01*
X140326046Y-74066860D01*
X140207540Y-73948354D01*
X140114431Y-73809005D01*
X140050295Y-73654169D01*
X140017600Y-73489797D01*
X140017600Y-73322203D01*
X140050295Y-73157831D01*
X140114431Y-73002995D01*
X140207540Y-72863646D01*
X140326046Y-72745140D01*
X140465395Y-72652031D01*
X140620231Y-72587895D01*
X140784603Y-72555200D01*
X140952197Y-72555200D01*
X141116569Y-72587895D01*
G37*
G36*
X156356569Y-72587895D02*
G01*
X156511405Y-72652031D01*
X156650754Y-72745140D01*
X156769260Y-72863646D01*
X156862369Y-73002995D01*
X156926505Y-73157831D01*
X156959200Y-73322203D01*
X156959200Y-73489797D01*
X156926505Y-73654169D01*
X156862369Y-73809005D01*
X156769260Y-73948354D01*
X156650754Y-74066860D01*
X156511405Y-74159969D01*
X156356569Y-74224105D01*
X156192197Y-74256800D01*
X156024603Y-74256800D01*
X155860231Y-74224105D01*
X155705395Y-74159969D01*
X155566046Y-74066860D01*
X155447540Y-73948354D01*
X155354431Y-73809005D01*
X155290295Y-73654169D01*
X155257600Y-73489797D01*
X155257600Y-73322203D01*
X155290295Y-73157831D01*
X155354431Y-73002995D01*
X155447540Y-72863646D01*
X155566046Y-72745140D01*
X155705395Y-72652031D01*
X155860231Y-72587895D01*
X156024603Y-72555200D01*
X156192197Y-72555200D01*
X156356569Y-72587895D01*
G37*
G36*
X173811300Y-73989300D02*
G01*
X172009700Y-73989300D01*
X172009700Y-72187700D01*
X173811300Y-72187700D01*
X173811300Y-73989300D01*
G37*
G36*
X168731300Y-73989300D02*
G01*
X166929700Y-73989300D01*
X166929700Y-72187700D01*
X168731300Y-72187700D01*
X168731300Y-73989300D01*
G37*
G36*
X178891300Y-73989300D02*
G01*
X177089700Y-73989300D01*
X177089700Y-72187700D01*
X178891300Y-72187700D01*
X178891300Y-73989300D01*
G37*
G36*
X176351300Y-73989300D02*
G01*
X174549700Y-73989300D01*
X174549700Y-72187700D01*
X176351300Y-72187700D01*
X176351300Y-73989300D01*
G37*
G36*
X171271300Y-73989300D02*
G01*
X169469700Y-73989300D01*
X169469700Y-72187700D01*
X171271300Y-72187700D01*
X171271300Y-73989300D01*
G37*
G36*
X186498600Y-73976600D02*
G01*
X184697000Y-73976600D01*
X184697000Y-72175000D01*
X186498600Y-72175000D01*
X186498600Y-73976600D01*
G37*
G36*
X189038600Y-73976600D02*
G01*
X187237000Y-73976600D01*
X187237000Y-72175000D01*
X189038600Y-72175000D01*
X189038600Y-73976600D01*
G37*
G36*
X183958600Y-73976600D02*
G01*
X182157000Y-73976600D01*
X182157000Y-72175000D01*
X183958600Y-72175000D01*
X183958600Y-73976600D01*
G37*
G36*
X181418600Y-73976600D02*
G01*
X179617000Y-73976600D01*
X179617000Y-72175000D01*
X181418600Y-72175000D01*
X181418600Y-73976600D01*
G37*
G36*
X216148169Y-70515255D02*
G01*
X216303005Y-70579391D01*
X216442354Y-70672500D01*
X216560860Y-70791006D01*
X216653969Y-70930355D01*
X216718105Y-71085191D01*
X216750800Y-71249563D01*
X216750800Y-71417157D01*
X216718105Y-71581529D01*
X216653969Y-71736365D01*
X216560860Y-71875714D01*
X216442354Y-71994220D01*
X216303005Y-72087329D01*
X216148169Y-72151465D01*
X215983797Y-72184160D01*
X215816203Y-72184160D01*
X215651831Y-72151465D01*
X215496995Y-72087329D01*
X215357646Y-71994220D01*
X215239140Y-71875714D01*
X215146031Y-71736365D01*
X215081895Y-71581529D01*
X215049200Y-71417157D01*
X215049200Y-71249563D01*
X215081895Y-71085191D01*
X215146031Y-70930355D01*
X215239140Y-70791006D01*
X215357646Y-70672500D01*
X215496995Y-70579391D01*
X215651831Y-70515255D01*
X215816203Y-70482560D01*
X215983797Y-70482560D01*
X216148169Y-70515255D01*
G37*
G36*
X209130800Y-72184160D02*
G01*
X207429200Y-72184160D01*
X207429200Y-70482560D01*
X209130800Y-70482560D01*
X209130800Y-72184160D01*
G37*
G36*
X156356569Y-70047895D02*
G01*
X156511405Y-70112031D01*
X156650754Y-70205140D01*
X156769260Y-70323646D01*
X156862369Y-70462995D01*
X156926505Y-70617831D01*
X156959200Y-70782203D01*
X156959200Y-70949797D01*
X156926505Y-71114169D01*
X156862369Y-71269005D01*
X156769260Y-71408354D01*
X156650754Y-71526860D01*
X156511405Y-71619969D01*
X156356569Y-71684105D01*
X156192197Y-71716800D01*
X156024603Y-71716800D01*
X155860231Y-71684105D01*
X155705395Y-71619969D01*
X155566046Y-71526860D01*
X155447540Y-71408354D01*
X155354431Y-71269005D01*
X155290295Y-71114169D01*
X155257600Y-70949797D01*
X155257600Y-70782203D01*
X155290295Y-70617831D01*
X155354431Y-70462995D01*
X155447540Y-70323646D01*
X155566046Y-70205140D01*
X155705395Y-70112031D01*
X155860231Y-70047895D01*
X156024603Y-70015200D01*
X156192197Y-70015200D01*
X156356569Y-70047895D01*
G37*
G36*
X141116569Y-70047895D02*
G01*
X141271405Y-70112031D01*
X141410754Y-70205140D01*
X141529260Y-70323646D01*
X141622369Y-70462995D01*
X141686505Y-70617831D01*
X141719200Y-70782203D01*
X141719200Y-70949797D01*
X141686505Y-71114169D01*
X141622369Y-71269005D01*
X141529260Y-71408354D01*
X141410754Y-71526860D01*
X141271405Y-71619969D01*
X141116569Y-71684105D01*
X140952197Y-71716800D01*
X140784603Y-71716800D01*
X140620231Y-71684105D01*
X140465395Y-71619969D01*
X140326046Y-71526860D01*
X140207540Y-71408354D01*
X140114431Y-71269005D01*
X140050295Y-71114169D01*
X140017600Y-70949797D01*
X140017600Y-70782203D01*
X140050295Y-70617831D01*
X140114431Y-70462995D01*
X140207540Y-70323646D01*
X140326046Y-70205140D01*
X140465395Y-70112031D01*
X140620231Y-70047895D01*
X140784603Y-70015200D01*
X140952197Y-70015200D01*
X141116569Y-70047895D01*
G37*
G36*
X170633254Y-69682317D02*
G01*
X170797189Y-69750221D01*
X170944727Y-69848803D01*
X171070197Y-69974273D01*
X171168779Y-70121811D01*
X171236683Y-70285746D01*
X171271300Y-70459779D01*
X171271300Y-70637221D01*
X171236683Y-70811254D01*
X171168779Y-70975189D01*
X171070197Y-71122727D01*
X170944727Y-71248197D01*
X170797189Y-71346779D01*
X170633254Y-71414683D01*
X170459221Y-71449300D01*
X170281779Y-71449300D01*
X170107746Y-71414683D01*
X169943811Y-71346779D01*
X169796273Y-71248197D01*
X169670803Y-71122727D01*
X169572221Y-70975189D01*
X169504317Y-70811254D01*
X169469700Y-70637221D01*
X169469700Y-70459779D01*
X169504317Y-70285746D01*
X169572221Y-70121811D01*
X169670803Y-69974273D01*
X169796273Y-69848803D01*
X169943811Y-69750221D01*
X170107746Y-69682317D01*
X170281779Y-69647700D01*
X170459221Y-69647700D01*
X170633254Y-69682317D01*
G37*
G36*
X168093254Y-69682317D02*
G01*
X168257189Y-69750221D01*
X168404727Y-69848803D01*
X168530197Y-69974273D01*
X168628779Y-70121811D01*
X168696683Y-70285746D01*
X168731300Y-70459779D01*
X168731300Y-70637221D01*
X168696683Y-70811254D01*
X168628779Y-70975189D01*
X168530197Y-71122727D01*
X168404727Y-71248197D01*
X168257189Y-71346779D01*
X168093254Y-71414683D01*
X167919221Y-71449300D01*
X167741779Y-71449300D01*
X167567746Y-71414683D01*
X167403811Y-71346779D01*
X167256273Y-71248197D01*
X167130803Y-71122727D01*
X167032221Y-70975189D01*
X166964317Y-70811254D01*
X166929700Y-70637221D01*
X166929700Y-70459779D01*
X166964317Y-70285746D01*
X167032221Y-70121811D01*
X167130803Y-69974273D01*
X167256273Y-69848803D01*
X167403811Y-69750221D01*
X167567746Y-69682317D01*
X167741779Y-69647700D01*
X167919221Y-69647700D01*
X168093254Y-69682317D01*
G37*
G36*
X178253254Y-69682317D02*
G01*
X178417189Y-69750221D01*
X178564727Y-69848803D01*
X178690197Y-69974273D01*
X178788779Y-70121811D01*
X178856683Y-70285746D01*
X178891300Y-70459779D01*
X178891300Y-70637221D01*
X178856683Y-70811254D01*
X178788779Y-70975189D01*
X178690197Y-71122727D01*
X178564727Y-71248197D01*
X178417189Y-71346779D01*
X178253254Y-71414683D01*
X178079221Y-71449300D01*
X177901779Y-71449300D01*
X177727746Y-71414683D01*
X177563811Y-71346779D01*
X177416273Y-71248197D01*
X177290803Y-71122727D01*
X177192221Y-70975189D01*
X177124317Y-70811254D01*
X177089700Y-70637221D01*
X177089700Y-70459779D01*
X177124317Y-70285746D01*
X177192221Y-70121811D01*
X177290803Y-69974273D01*
X177416273Y-69848803D01*
X177563811Y-69750221D01*
X177727746Y-69682317D01*
X177901779Y-69647700D01*
X178079221Y-69647700D01*
X178253254Y-69682317D01*
G37*
G36*
X175713254Y-69682317D02*
G01*
X175877189Y-69750221D01*
X176024727Y-69848803D01*
X176150197Y-69974273D01*
X176248779Y-70121811D01*
X176316683Y-70285746D01*
X176351300Y-70459779D01*
X176351300Y-70637221D01*
X176316683Y-70811254D01*
X176248779Y-70975189D01*
X176150197Y-71122727D01*
X176024727Y-71248197D01*
X175877189Y-71346779D01*
X175713254Y-71414683D01*
X175539221Y-71449300D01*
X175361779Y-71449300D01*
X175187746Y-71414683D01*
X175023811Y-71346779D01*
X174876273Y-71248197D01*
X174750803Y-71122727D01*
X174652221Y-70975189D01*
X174584317Y-70811254D01*
X174549700Y-70637221D01*
X174549700Y-70459779D01*
X174584317Y-70285746D01*
X174652221Y-70121811D01*
X174750803Y-69974273D01*
X174876273Y-69848803D01*
X175023811Y-69750221D01*
X175187746Y-69682317D01*
X175361779Y-69647700D01*
X175539221Y-69647700D01*
X175713254Y-69682317D01*
G37*
G36*
X173173254Y-69682317D02*
G01*
X173337189Y-69750221D01*
X173484727Y-69848803D01*
X173610197Y-69974273D01*
X173708779Y-70121811D01*
X173776683Y-70285746D01*
X173811300Y-70459779D01*
X173811300Y-70637221D01*
X173776683Y-70811254D01*
X173708779Y-70975189D01*
X173610197Y-71122727D01*
X173484727Y-71248197D01*
X173337189Y-71346779D01*
X173173254Y-71414683D01*
X172999221Y-71449300D01*
X172821779Y-71449300D01*
X172647746Y-71414683D01*
X172483811Y-71346779D01*
X172336273Y-71248197D01*
X172210803Y-71122727D01*
X172112221Y-70975189D01*
X172044317Y-70811254D01*
X172009700Y-70637221D01*
X172009700Y-70459779D01*
X172044317Y-70285746D01*
X172112221Y-70121811D01*
X172210803Y-69974273D01*
X172336273Y-69848803D01*
X172483811Y-69750221D01*
X172647746Y-69682317D01*
X172821779Y-69647700D01*
X172999221Y-69647700D01*
X173173254Y-69682317D01*
G37*
G36*
X188400554Y-69669617D02*
G01*
X188564489Y-69737521D01*
X188712027Y-69836103D01*
X188837497Y-69961573D01*
X188936079Y-70109111D01*
X189003983Y-70273046D01*
X189038600Y-70447079D01*
X189038600Y-70624521D01*
X189003983Y-70798554D01*
X188936079Y-70962489D01*
X188837497Y-71110027D01*
X188712027Y-71235497D01*
X188564489Y-71334079D01*
X188400554Y-71401983D01*
X188226521Y-71436600D01*
X188049079Y-71436600D01*
X187875046Y-71401983D01*
X187711111Y-71334079D01*
X187563573Y-71235497D01*
X187438103Y-71110027D01*
X187339521Y-70962489D01*
X187271617Y-70798554D01*
X187237000Y-70624521D01*
X187237000Y-70447079D01*
X187271617Y-70273046D01*
X187339521Y-70109111D01*
X187438103Y-69961573D01*
X187563573Y-69836103D01*
X187711111Y-69737521D01*
X187875046Y-69669617D01*
X188049079Y-69635000D01*
X188226521Y-69635000D01*
X188400554Y-69669617D01*
G37*
G36*
X180780554Y-69669617D02*
G01*
X180944489Y-69737521D01*
X181092027Y-69836103D01*
X181217497Y-69961573D01*
X181316079Y-70109111D01*
X181383983Y-70273046D01*
X181418600Y-70447079D01*
X181418600Y-70624521D01*
X181383983Y-70798554D01*
X181316079Y-70962489D01*
X181217497Y-71110027D01*
X181092027Y-71235497D01*
X180944489Y-71334079D01*
X180780554Y-71401983D01*
X180606521Y-71436600D01*
X180429079Y-71436600D01*
X180255046Y-71401983D01*
X180091111Y-71334079D01*
X179943573Y-71235497D01*
X179818103Y-71110027D01*
X179719521Y-70962489D01*
X179651617Y-70798554D01*
X179617000Y-70624521D01*
X179617000Y-70447079D01*
X179651617Y-70273046D01*
X179719521Y-70109111D01*
X179818103Y-69961573D01*
X179943573Y-69836103D01*
X180091111Y-69737521D01*
X180255046Y-69669617D01*
X180429079Y-69635000D01*
X180606521Y-69635000D01*
X180780554Y-69669617D01*
G37*
G36*
X185860554Y-69669617D02*
G01*
X186024489Y-69737521D01*
X186172027Y-69836103D01*
X186297497Y-69961573D01*
X186396079Y-70109111D01*
X186463983Y-70273046D01*
X186498600Y-70447079D01*
X186498600Y-70624521D01*
X186463983Y-70798554D01*
X186396079Y-70962489D01*
X186297497Y-71110027D01*
X186172027Y-71235497D01*
X186024489Y-71334079D01*
X185860554Y-71401983D01*
X185686521Y-71436600D01*
X185509079Y-71436600D01*
X185335046Y-71401983D01*
X185171111Y-71334079D01*
X185023573Y-71235497D01*
X184898103Y-71110027D01*
X184799521Y-70962489D01*
X184731617Y-70798554D01*
X184697000Y-70624521D01*
X184697000Y-70447079D01*
X184731617Y-70273046D01*
X184799521Y-70109111D01*
X184898103Y-69961573D01*
X185023573Y-69836103D01*
X185171111Y-69737521D01*
X185335046Y-69669617D01*
X185509079Y-69635000D01*
X185686521Y-69635000D01*
X185860554Y-69669617D01*
G37*
G36*
X183320554Y-69669617D02*
G01*
X183484489Y-69737521D01*
X183632027Y-69836103D01*
X183757497Y-69961573D01*
X183856079Y-70109111D01*
X183923983Y-70273046D01*
X183958600Y-70447079D01*
X183958600Y-70624521D01*
X183923983Y-70798554D01*
X183856079Y-70962489D01*
X183757497Y-71110027D01*
X183632027Y-71235497D01*
X183484489Y-71334079D01*
X183320554Y-71401983D01*
X183146521Y-71436600D01*
X182969079Y-71436600D01*
X182795046Y-71401983D01*
X182631111Y-71334079D01*
X182483573Y-71235497D01*
X182358103Y-71110027D01*
X182259521Y-70962489D01*
X182191617Y-70798554D01*
X182157000Y-70624521D01*
X182157000Y-70447079D01*
X182191617Y-70273046D01*
X182259521Y-70109111D01*
X182358103Y-69961573D01*
X182483573Y-69836103D01*
X182631111Y-69737521D01*
X182795046Y-69669617D01*
X182969079Y-69635000D01*
X183146521Y-69635000D01*
X183320554Y-69669617D01*
G37*
G36*
X160628700Y-69226800D02*
G01*
X158827100Y-69226800D01*
X158827100Y-67425200D01*
X160628700Y-67425200D01*
X160628700Y-69226800D01*
G37*
G36*
X141116569Y-67507895D02*
G01*
X141271405Y-67572031D01*
X141410754Y-67665140D01*
X141529260Y-67783646D01*
X141622369Y-67922995D01*
X141686505Y-68077831D01*
X141719200Y-68242203D01*
X141719200Y-68409797D01*
X141686505Y-68574169D01*
X141622369Y-68729005D01*
X141529260Y-68868354D01*
X141410754Y-68986860D01*
X141271405Y-69079969D01*
X141116569Y-69144105D01*
X140952197Y-69176800D01*
X140784603Y-69176800D01*
X140620231Y-69144105D01*
X140465395Y-69079969D01*
X140326046Y-68986860D01*
X140207540Y-68868354D01*
X140114431Y-68729005D01*
X140050295Y-68574169D01*
X140017600Y-68409797D01*
X140017600Y-68242203D01*
X140050295Y-68077831D01*
X140114431Y-67922995D01*
X140207540Y-67783646D01*
X140326046Y-67665140D01*
X140465395Y-67572031D01*
X140620231Y-67507895D01*
X140784603Y-67475200D01*
X140952197Y-67475200D01*
X141116569Y-67507895D01*
G37*
G36*
X156356569Y-67507895D02*
G01*
X156511405Y-67572031D01*
X156650754Y-67665140D01*
X156769260Y-67783646D01*
X156862369Y-67922995D01*
X156926505Y-68077831D01*
X156959200Y-68242203D01*
X156959200Y-68409797D01*
X156926505Y-68574169D01*
X156862369Y-68729005D01*
X156769260Y-68868354D01*
X156650754Y-68986860D01*
X156511405Y-69079969D01*
X156356569Y-69144105D01*
X156192197Y-69176800D01*
X156024603Y-69176800D01*
X155860231Y-69144105D01*
X155705395Y-69079969D01*
X155566046Y-68986860D01*
X155447540Y-68868354D01*
X155354431Y-68729005D01*
X155290295Y-68574169D01*
X155257600Y-68409797D01*
X155257600Y-68242203D01*
X155290295Y-68077831D01*
X155354431Y-67922995D01*
X155447540Y-67783646D01*
X155566046Y-67665140D01*
X155705395Y-67572031D01*
X155860231Y-67507895D01*
X156024603Y-67475200D01*
X156192197Y-67475200D01*
X156356569Y-67507895D01*
G37*
G36*
X223686187Y-65756022D02*
G01*
X223877420Y-65835233D01*
X224049526Y-65950231D01*
X224195889Y-66096594D01*
X224310887Y-66268700D01*
X224390098Y-66459933D01*
X224430480Y-66662945D01*
X224430480Y-66869935D01*
X224390098Y-67072947D01*
X224310887Y-67264180D01*
X224195889Y-67436286D01*
X224049526Y-67582649D01*
X223877420Y-67697647D01*
X223686187Y-67776858D01*
X223483175Y-67817240D01*
X223276185Y-67817240D01*
X223073173Y-67776858D01*
X222881940Y-67697647D01*
X222709834Y-67582649D01*
X222563471Y-67436286D01*
X222448473Y-67264180D01*
X222369262Y-67072947D01*
X222328880Y-66869935D01*
X222328880Y-66662945D01*
X222369262Y-66459933D01*
X222448473Y-66268700D01*
X222563471Y-66096594D01*
X222709834Y-65950231D01*
X222881940Y-65835233D01*
X223073173Y-65756022D01*
X223276185Y-65715640D01*
X223483175Y-65715640D01*
X223686187Y-65756022D01*
G37*
G36*
X216186187Y-65756022D02*
G01*
X216377420Y-65835233D01*
X216549526Y-65950231D01*
X216695889Y-66096594D01*
X216810887Y-66268700D01*
X216890098Y-66459933D01*
X216930480Y-66662945D01*
X216930480Y-66869935D01*
X216890098Y-67072947D01*
X216810887Y-67264180D01*
X216695889Y-67436286D01*
X216549526Y-67582649D01*
X216377420Y-67697647D01*
X216186187Y-67776858D01*
X215983175Y-67817240D01*
X215776185Y-67817240D01*
X215573173Y-67776858D01*
X215381940Y-67697647D01*
X215209834Y-67582649D01*
X215063471Y-67436286D01*
X214948473Y-67264180D01*
X214869262Y-67072947D01*
X214828880Y-66869935D01*
X214828880Y-66662945D01*
X214869262Y-66459933D01*
X214948473Y-66268700D01*
X215063471Y-66096594D01*
X215209834Y-65950231D01*
X215381940Y-65835233D01*
X215573173Y-65756022D01*
X215776185Y-65715640D01*
X215983175Y-65715640D01*
X216186187Y-65756022D01*
G37*
G36*
X185858669Y-65856895D02*
G01*
X186013505Y-65921031D01*
X186152854Y-66014140D01*
X186271360Y-66132646D01*
X186364469Y-66271995D01*
X186428605Y-66426831D01*
X186461300Y-66591203D01*
X186461300Y-66758797D01*
X186428605Y-66923169D01*
X186364469Y-67078005D01*
X186271360Y-67217354D01*
X186152854Y-67335860D01*
X186013505Y-67428969D01*
X185858669Y-67493105D01*
X185694297Y-67525800D01*
X185526703Y-67525800D01*
X185362331Y-67493105D01*
X185207495Y-67428969D01*
X185068146Y-67335860D01*
X184949640Y-67217354D01*
X184856531Y-67078005D01*
X184792395Y-66923169D01*
X184759700Y-66758797D01*
X184759700Y-66591203D01*
X184792395Y-66426831D01*
X184856531Y-66271995D01*
X184949640Y-66132646D01*
X185068146Y-66014140D01*
X185207495Y-65921031D01*
X185362331Y-65856895D01*
X185526703Y-65824200D01*
X185694297Y-65824200D01*
X185858669Y-65856895D01*
G37*
G36*
X175698669Y-65856895D02*
G01*
X175853505Y-65921031D01*
X175992854Y-66014140D01*
X176111360Y-66132646D01*
X176204469Y-66271995D01*
X176268605Y-66426831D01*
X176301300Y-66591203D01*
X176301300Y-66758797D01*
X176268605Y-66923169D01*
X176204469Y-67078005D01*
X176111360Y-67217354D01*
X175992854Y-67335860D01*
X175853505Y-67428969D01*
X175698669Y-67493105D01*
X175534297Y-67525800D01*
X175366703Y-67525800D01*
X175202331Y-67493105D01*
X175047495Y-67428969D01*
X174908146Y-67335860D01*
X174789640Y-67217354D01*
X174696531Y-67078005D01*
X174632395Y-66923169D01*
X174599700Y-66758797D01*
X174599700Y-66591203D01*
X174632395Y-66426831D01*
X174696531Y-66271995D01*
X174789640Y-66132646D01*
X174908146Y-66014140D01*
X175047495Y-65921031D01*
X175202331Y-65856895D01*
X175366703Y-65824200D01*
X175534297Y-65824200D01*
X175698669Y-65856895D01*
G37*
G36*
X173158669Y-65856895D02*
G01*
X173313505Y-65921031D01*
X173452854Y-66014140D01*
X173571360Y-66132646D01*
X173664469Y-66271995D01*
X173728605Y-66426831D01*
X173761300Y-66591203D01*
X173761300Y-66758797D01*
X173728605Y-66923169D01*
X173664469Y-67078005D01*
X173571360Y-67217354D01*
X173452854Y-67335860D01*
X173313505Y-67428969D01*
X173158669Y-67493105D01*
X172994297Y-67525800D01*
X172826703Y-67525800D01*
X172662331Y-67493105D01*
X172507495Y-67428969D01*
X172368146Y-67335860D01*
X172249640Y-67217354D01*
X172156531Y-67078005D01*
X172092395Y-66923169D01*
X172059700Y-66758797D01*
X172059700Y-66591203D01*
X172092395Y-66426831D01*
X172156531Y-66271995D01*
X172249640Y-66132646D01*
X172368146Y-66014140D01*
X172507495Y-65921031D01*
X172662331Y-65856895D01*
X172826703Y-65824200D01*
X172994297Y-65824200D01*
X173158669Y-65856895D01*
G37*
G36*
X170618669Y-65856895D02*
G01*
X170773505Y-65921031D01*
X170912854Y-66014140D01*
X171031360Y-66132646D01*
X171124469Y-66271995D01*
X171188605Y-66426831D01*
X171221300Y-66591203D01*
X171221300Y-66758797D01*
X171188605Y-66923169D01*
X171124469Y-67078005D01*
X171031360Y-67217354D01*
X170912854Y-67335860D01*
X170773505Y-67428969D01*
X170618669Y-67493105D01*
X170454297Y-67525800D01*
X170286703Y-67525800D01*
X170122331Y-67493105D01*
X169967495Y-67428969D01*
X169828146Y-67335860D01*
X169709640Y-67217354D01*
X169616531Y-67078005D01*
X169552395Y-66923169D01*
X169519700Y-66758797D01*
X169519700Y-66591203D01*
X169552395Y-66426831D01*
X169616531Y-66271995D01*
X169709640Y-66132646D01*
X169828146Y-66014140D01*
X169967495Y-65921031D01*
X170122331Y-65856895D01*
X170286703Y-65824200D01*
X170454297Y-65824200D01*
X170618669Y-65856895D01*
G37*
G36*
X180778669Y-65856895D02*
G01*
X180933505Y-65921031D01*
X181072854Y-66014140D01*
X181191360Y-66132646D01*
X181284469Y-66271995D01*
X181348605Y-66426831D01*
X181381300Y-66591203D01*
X181381300Y-66758797D01*
X181348605Y-66923169D01*
X181284469Y-67078005D01*
X181191360Y-67217354D01*
X181072854Y-67335860D01*
X180933505Y-67428969D01*
X180778669Y-67493105D01*
X180614297Y-67525800D01*
X180446703Y-67525800D01*
X180282331Y-67493105D01*
X180127495Y-67428969D01*
X179988146Y-67335860D01*
X179869640Y-67217354D01*
X179776531Y-67078005D01*
X179712395Y-66923169D01*
X179679700Y-66758797D01*
X179679700Y-66591203D01*
X179712395Y-66426831D01*
X179776531Y-66271995D01*
X179869640Y-66132646D01*
X179988146Y-66014140D01*
X180127495Y-65921031D01*
X180282331Y-65856895D01*
X180446703Y-65824200D01*
X180614297Y-65824200D01*
X180778669Y-65856895D01*
G37*
G36*
X183318669Y-65856895D02*
G01*
X183473505Y-65921031D01*
X183612854Y-66014140D01*
X183731360Y-66132646D01*
X183824469Y-66271995D01*
X183888605Y-66426831D01*
X183921300Y-66591203D01*
X183921300Y-66758797D01*
X183888605Y-66923169D01*
X183824469Y-67078005D01*
X183731360Y-67217354D01*
X183612854Y-67335860D01*
X183473505Y-67428969D01*
X183318669Y-67493105D01*
X183154297Y-67525800D01*
X182986703Y-67525800D01*
X182822331Y-67493105D01*
X182667495Y-67428969D01*
X182528146Y-67335860D01*
X182409640Y-67217354D01*
X182316531Y-67078005D01*
X182252395Y-66923169D01*
X182219700Y-66758797D01*
X182219700Y-66591203D01*
X182252395Y-66426831D01*
X182316531Y-66271995D01*
X182409640Y-66132646D01*
X182528146Y-66014140D01*
X182667495Y-65921031D01*
X182822331Y-65856895D01*
X182986703Y-65824200D01*
X183154297Y-65824200D01*
X183318669Y-65856895D01*
G37*
G36*
X178238669Y-65856895D02*
G01*
X178393505Y-65921031D01*
X178532854Y-66014140D01*
X178651360Y-66132646D01*
X178744469Y-66271995D01*
X178808605Y-66426831D01*
X178841300Y-66591203D01*
X178841300Y-66758797D01*
X178808605Y-66923169D01*
X178744469Y-67078005D01*
X178651360Y-67217354D01*
X178532854Y-67335860D01*
X178393505Y-67428969D01*
X178238669Y-67493105D01*
X178074297Y-67525800D01*
X177906703Y-67525800D01*
X177742331Y-67493105D01*
X177587495Y-67428969D01*
X177448146Y-67335860D01*
X177329640Y-67217354D01*
X177236531Y-67078005D01*
X177172395Y-66923169D01*
X177139700Y-66758797D01*
X177139700Y-66591203D01*
X177172395Y-66426831D01*
X177236531Y-66271995D01*
X177329640Y-66132646D01*
X177448146Y-66014140D01*
X177587495Y-65921031D01*
X177742331Y-65856895D01*
X177906703Y-65824200D01*
X178074297Y-65824200D01*
X178238669Y-65856895D01*
G37*
G36*
X188398669Y-65856895D02*
G01*
X188553505Y-65921031D01*
X188692854Y-66014140D01*
X188811360Y-66132646D01*
X188904469Y-66271995D01*
X188968605Y-66426831D01*
X189001300Y-66591203D01*
X189001300Y-66758797D01*
X188968605Y-66923169D01*
X188904469Y-67078005D01*
X188811360Y-67217354D01*
X188692854Y-67335860D01*
X188553505Y-67428969D01*
X188398669Y-67493105D01*
X188234297Y-67525800D01*
X188066703Y-67525800D01*
X187902331Y-67493105D01*
X187747495Y-67428969D01*
X187608146Y-67335860D01*
X187489640Y-67217354D01*
X187396531Y-67078005D01*
X187332395Y-66923169D01*
X187299700Y-66758797D01*
X187299700Y-66591203D01*
X187332395Y-66426831D01*
X187396531Y-66271995D01*
X187489640Y-66132646D01*
X187608146Y-66014140D01*
X187747495Y-65921031D01*
X187902331Y-65856895D01*
X188066703Y-65824200D01*
X188234297Y-65824200D01*
X188398669Y-65856895D01*
G37*
G36*
X191541300Y-67525800D02*
G01*
X189839700Y-67525800D01*
X189839700Y-65824200D01*
X191541300Y-65824200D01*
X191541300Y-67525800D01*
G37*
G36*
X168078669Y-65856895D02*
G01*
X168233505Y-65921031D01*
X168372854Y-66014140D01*
X168491360Y-66132646D01*
X168584469Y-66271995D01*
X168648605Y-66426831D01*
X168681300Y-66591203D01*
X168681300Y-66758797D01*
X168648605Y-66923169D01*
X168584469Y-67078005D01*
X168491360Y-67217354D01*
X168372854Y-67335860D01*
X168233505Y-67428969D01*
X168078669Y-67493105D01*
X167914297Y-67525800D01*
X167746703Y-67525800D01*
X167582331Y-67493105D01*
X167427495Y-67428969D01*
X167288146Y-67335860D01*
X167169640Y-67217354D01*
X167076531Y-67078005D01*
X167012395Y-66923169D01*
X166979700Y-66758797D01*
X166979700Y-66591203D01*
X167012395Y-66426831D01*
X167076531Y-66271995D01*
X167169640Y-66132646D01*
X167288146Y-66014140D01*
X167427495Y-65921031D01*
X167582331Y-65856895D01*
X167746703Y-65824200D01*
X167914297Y-65824200D01*
X168078669Y-65856895D01*
G37*
G36*
X159990654Y-64919817D02*
G01*
X160154589Y-64987721D01*
X160302127Y-65086303D01*
X160427597Y-65211773D01*
X160526179Y-65359311D01*
X160594083Y-65523246D01*
X160628700Y-65697279D01*
X160628700Y-65874721D01*
X160594083Y-66048754D01*
X160526179Y-66212689D01*
X160427597Y-66360227D01*
X160302127Y-66485697D01*
X160154589Y-66584279D01*
X159990654Y-66652183D01*
X159816621Y-66686800D01*
X159639179Y-66686800D01*
X159465146Y-66652183D01*
X159301211Y-66584279D01*
X159153673Y-66485697D01*
X159028203Y-66360227D01*
X158929621Y-66212689D01*
X158861717Y-66048754D01*
X158827100Y-65874721D01*
X158827100Y-65697279D01*
X158861717Y-65523246D01*
X158929621Y-65359311D01*
X159028203Y-65211773D01*
X159153673Y-65086303D01*
X159301211Y-64987721D01*
X159465146Y-64919817D01*
X159639179Y-64885200D01*
X159816621Y-64885200D01*
X159990654Y-64919817D01*
G37*
G36*
X141116569Y-64967895D02*
G01*
X141271405Y-65032031D01*
X141410754Y-65125140D01*
X141529260Y-65243646D01*
X141622369Y-65382995D01*
X141686505Y-65537831D01*
X141719200Y-65702203D01*
X141719200Y-65869797D01*
X141686505Y-66034169D01*
X141622369Y-66189005D01*
X141529260Y-66328354D01*
X141410754Y-66446860D01*
X141271405Y-66539969D01*
X141116569Y-66604105D01*
X140952197Y-66636800D01*
X140784603Y-66636800D01*
X140620231Y-66604105D01*
X140465395Y-66539969D01*
X140326046Y-66446860D01*
X140207540Y-66328354D01*
X140114431Y-66189005D01*
X140050295Y-66034169D01*
X140017600Y-65869797D01*
X140017600Y-65702203D01*
X140050295Y-65537831D01*
X140114431Y-65382995D01*
X140207540Y-65243646D01*
X140326046Y-65125140D01*
X140465395Y-65032031D01*
X140620231Y-64967895D01*
X140784603Y-64935200D01*
X140952197Y-64935200D01*
X141116569Y-64967895D01*
G37*
G36*
X156356569Y-64967895D02*
G01*
X156511405Y-65032031D01*
X156650754Y-65125140D01*
X156769260Y-65243646D01*
X156862369Y-65382995D01*
X156926505Y-65537831D01*
X156959200Y-65702203D01*
X156959200Y-65869797D01*
X156926505Y-66034169D01*
X156862369Y-66189005D01*
X156769260Y-66328354D01*
X156650754Y-66446860D01*
X156511405Y-66539969D01*
X156356569Y-66604105D01*
X156192197Y-66636800D01*
X156024603Y-66636800D01*
X155860231Y-66604105D01*
X155705395Y-66539969D01*
X155566046Y-66446860D01*
X155447540Y-66328354D01*
X155354431Y-66189005D01*
X155290295Y-66034169D01*
X155257600Y-65869797D01*
X155257600Y-65702203D01*
X155290295Y-65537831D01*
X155354431Y-65382995D01*
X155447540Y-65243646D01*
X155566046Y-65125140D01*
X155705395Y-65032031D01*
X155860231Y-64967895D01*
X156024603Y-64935200D01*
X156192197Y-64935200D01*
X156356569Y-64967895D01*
G37*
G36*
X159990654Y-62379817D02*
G01*
X160154589Y-62447721D01*
X160302127Y-62546303D01*
X160427597Y-62671773D01*
X160526179Y-62819311D01*
X160594083Y-62983246D01*
X160628700Y-63157279D01*
X160628700Y-63334721D01*
X160594083Y-63508754D01*
X160526179Y-63672689D01*
X160427597Y-63820227D01*
X160302127Y-63945697D01*
X160154589Y-64044279D01*
X159990654Y-64112183D01*
X159816621Y-64146800D01*
X159639179Y-64146800D01*
X159465146Y-64112183D01*
X159301211Y-64044279D01*
X159153673Y-63945697D01*
X159028203Y-63820227D01*
X158929621Y-63672689D01*
X158861717Y-63508754D01*
X158827100Y-63334721D01*
X158827100Y-63157279D01*
X158861717Y-62983246D01*
X158929621Y-62819311D01*
X159028203Y-62671773D01*
X159153673Y-62546303D01*
X159301211Y-62447721D01*
X159465146Y-62379817D01*
X159639179Y-62345200D01*
X159816621Y-62345200D01*
X159990654Y-62379817D01*
G37*
G36*
X156356569Y-62427895D02*
G01*
X156511405Y-62492031D01*
X156650754Y-62585140D01*
X156769260Y-62703646D01*
X156862369Y-62842995D01*
X156926505Y-62997831D01*
X156959200Y-63162203D01*
X156959200Y-63329797D01*
X156926505Y-63494169D01*
X156862369Y-63649005D01*
X156769260Y-63788354D01*
X156650754Y-63906860D01*
X156511405Y-63999969D01*
X156356569Y-64064105D01*
X156192197Y-64096800D01*
X156024603Y-64096800D01*
X155860231Y-64064105D01*
X155705395Y-63999969D01*
X155566046Y-63906860D01*
X155447540Y-63788354D01*
X155354431Y-63649005D01*
X155290295Y-63494169D01*
X155257600Y-63329797D01*
X155257600Y-63162203D01*
X155290295Y-62997831D01*
X155354431Y-62842995D01*
X155447540Y-62703646D01*
X155566046Y-62585140D01*
X155705395Y-62492031D01*
X155860231Y-62427895D01*
X156024603Y-62395200D01*
X156192197Y-62395200D01*
X156356569Y-62427895D01*
G37*
G36*
X141719200Y-64096800D02*
G01*
X140017600Y-64096800D01*
X140017600Y-62395200D01*
X141719200Y-62395200D01*
X141719200Y-64096800D01*
G37*
G36*
X178891300Y-61606800D02*
G01*
X177089700Y-61606800D01*
X177089700Y-59805200D01*
X178891300Y-59805200D01*
X178891300Y-61606800D01*
G37*
G36*
X168731300Y-61606800D02*
G01*
X166929700Y-61606800D01*
X166929700Y-59805200D01*
X168731300Y-59805200D01*
X168731300Y-61606800D01*
G37*
G36*
X171271300Y-61606800D02*
G01*
X169469700Y-61606800D01*
X169469700Y-59805200D01*
X171271300Y-59805200D01*
X171271300Y-61606800D01*
G37*
G36*
X176351300Y-61606800D02*
G01*
X174549700Y-61606800D01*
X174549700Y-59805200D01*
X176351300Y-59805200D01*
X176351300Y-61606800D01*
G37*
G36*
X173811300Y-61606800D02*
G01*
X172009700Y-61606800D01*
X172009700Y-59805200D01*
X173811300Y-59805200D01*
X173811300Y-61606800D01*
G37*
G36*
X175713254Y-57299817D02*
G01*
X175877189Y-57367721D01*
X176024727Y-57466303D01*
X176150197Y-57591773D01*
X176248779Y-57739311D01*
X176316683Y-57903246D01*
X176351300Y-58077279D01*
X176351300Y-58254721D01*
X176316683Y-58428754D01*
X176248779Y-58592689D01*
X176150197Y-58740227D01*
X176024727Y-58865697D01*
X175877189Y-58964279D01*
X175713254Y-59032183D01*
X175539221Y-59066800D01*
X175361779Y-59066800D01*
X175187746Y-59032183D01*
X175023811Y-58964279D01*
X174876273Y-58865697D01*
X174750803Y-58740227D01*
X174652221Y-58592689D01*
X174584317Y-58428754D01*
X174549700Y-58254721D01*
X174549700Y-58077279D01*
X174584317Y-57903246D01*
X174652221Y-57739311D01*
X174750803Y-57591773D01*
X174876273Y-57466303D01*
X175023811Y-57367721D01*
X175187746Y-57299817D01*
X175361779Y-57265200D01*
X175539221Y-57265200D01*
X175713254Y-57299817D01*
G37*
G36*
X170633254Y-57299817D02*
G01*
X170797189Y-57367721D01*
X170944727Y-57466303D01*
X171070197Y-57591773D01*
X171168779Y-57739311D01*
X171236683Y-57903246D01*
X171271300Y-58077279D01*
X171271300Y-58254721D01*
X171236683Y-58428754D01*
X171168779Y-58592689D01*
X171070197Y-58740227D01*
X170944727Y-58865697D01*
X170797189Y-58964279D01*
X170633254Y-59032183D01*
X170459221Y-59066800D01*
X170281779Y-59066800D01*
X170107746Y-59032183D01*
X169943811Y-58964279D01*
X169796273Y-58865697D01*
X169670803Y-58740227D01*
X169572221Y-58592689D01*
X169504317Y-58428754D01*
X169469700Y-58254721D01*
X169469700Y-58077279D01*
X169504317Y-57903246D01*
X169572221Y-57739311D01*
X169670803Y-57591773D01*
X169796273Y-57466303D01*
X169943811Y-57367721D01*
X170107746Y-57299817D01*
X170281779Y-57265200D01*
X170459221Y-57265200D01*
X170633254Y-57299817D01*
G37*
G36*
X173173254Y-57299817D02*
G01*
X173337189Y-57367721D01*
X173484727Y-57466303D01*
X173610197Y-57591773D01*
X173708779Y-57739311D01*
X173776683Y-57903246D01*
X173811300Y-58077279D01*
X173811300Y-58254721D01*
X173776683Y-58428754D01*
X173708779Y-58592689D01*
X173610197Y-58740227D01*
X173484727Y-58865697D01*
X173337189Y-58964279D01*
X173173254Y-59032183D01*
X172999221Y-59066800D01*
X172821779Y-59066800D01*
X172647746Y-59032183D01*
X172483811Y-58964279D01*
X172336273Y-58865697D01*
X172210803Y-58740227D01*
X172112221Y-58592689D01*
X172044317Y-58428754D01*
X172009700Y-58254721D01*
X172009700Y-58077279D01*
X172044317Y-57903246D01*
X172112221Y-57739311D01*
X172210803Y-57591773D01*
X172336273Y-57466303D01*
X172483811Y-57367721D01*
X172647746Y-57299817D01*
X172821779Y-57265200D01*
X172999221Y-57265200D01*
X173173254Y-57299817D01*
G37*
G36*
X178253254Y-57299817D02*
G01*
X178417189Y-57367721D01*
X178564727Y-57466303D01*
X178690197Y-57591773D01*
X178788779Y-57739311D01*
X178856683Y-57903246D01*
X178891300Y-58077279D01*
X178891300Y-58254721D01*
X178856683Y-58428754D01*
X178788779Y-58592689D01*
X178690197Y-58740227D01*
X178564727Y-58865697D01*
X178417189Y-58964279D01*
X178253254Y-59032183D01*
X178079221Y-59066800D01*
X177901779Y-59066800D01*
X177727746Y-59032183D01*
X177563811Y-58964279D01*
X177416273Y-58865697D01*
X177290803Y-58740227D01*
X177192221Y-58592689D01*
X177124317Y-58428754D01*
X177089700Y-58254721D01*
X177089700Y-58077279D01*
X177124317Y-57903246D01*
X177192221Y-57739311D01*
X177290803Y-57591773D01*
X177416273Y-57466303D01*
X177563811Y-57367721D01*
X177727746Y-57299817D01*
X177901779Y-57265200D01*
X178079221Y-57265200D01*
X178253254Y-57299817D01*
G37*
G36*
X168093254Y-57299817D02*
G01*
X168257189Y-57367721D01*
X168404727Y-57466303D01*
X168530197Y-57591773D01*
X168628779Y-57739311D01*
X168696683Y-57903246D01*
X168731300Y-58077279D01*
X168731300Y-58254721D01*
X168696683Y-58428754D01*
X168628779Y-58592689D01*
X168530197Y-58740227D01*
X168404727Y-58865697D01*
X168257189Y-58964279D01*
X168093254Y-59032183D01*
X167919221Y-59066800D01*
X167741779Y-59066800D01*
X167567746Y-59032183D01*
X167403811Y-58964279D01*
X167256273Y-58865697D01*
X167130803Y-58740227D01*
X167032221Y-58592689D01*
X166964317Y-58428754D01*
X166929700Y-58254721D01*
X166929700Y-58077279D01*
X166964317Y-57903246D01*
X167032221Y-57739311D01*
X167130803Y-57591773D01*
X167256273Y-57466303D01*
X167403811Y-57367721D01*
X167567746Y-57299817D01*
X167741779Y-57265200D01*
X167919221Y-57265200D01*
X168093254Y-57299817D01*
G37*
G36*
X233317748Y-53270954D02*
G01*
X233836560Y-53485854D01*
X234303479Y-53797839D01*
X234700561Y-54194921D01*
X235012546Y-54661840D01*
X235227446Y-55180652D01*
X235337000Y-55731421D01*
X235337000Y-56292979D01*
X235227446Y-56843748D01*
X235012546Y-57362560D01*
X234700561Y-57829479D01*
X234303479Y-58226561D01*
X233836560Y-58538546D01*
X233317748Y-58753446D01*
X232766979Y-58863000D01*
X232205421Y-58863000D01*
X231654652Y-58753446D01*
X231135840Y-58538546D01*
X230668921Y-58226561D01*
X230271839Y-57829479D01*
X229959854Y-57362560D01*
X229744954Y-56843748D01*
X229635400Y-56292979D01*
X229635400Y-55731421D01*
X229744954Y-55180652D01*
X229959854Y-54661840D01*
X230271839Y-54194921D01*
X230668921Y-53797839D01*
X231135840Y-53485854D01*
X231654652Y-53270954D01*
X232205421Y-53161400D01*
X232766979Y-53161400D01*
X233317748Y-53270954D01*
G37*
G36*
X168078669Y-53537895D02*
G01*
X168233505Y-53602031D01*
X168372854Y-53695140D01*
X168491360Y-53813646D01*
X168584469Y-53952995D01*
X168648605Y-54107831D01*
X168681300Y-54272203D01*
X168681300Y-54439797D01*
X168648605Y-54604169D01*
X168584469Y-54759005D01*
X168491360Y-54898354D01*
X168372854Y-55016860D01*
X168233505Y-55109969D01*
X168078669Y-55174105D01*
X167914297Y-55206800D01*
X167746703Y-55206800D01*
X167582331Y-55174105D01*
X167427495Y-55109969D01*
X167288146Y-55016860D01*
X167169640Y-54898354D01*
X167076531Y-54759005D01*
X167012395Y-54604169D01*
X166979700Y-54439797D01*
X166979700Y-54272203D01*
X167012395Y-54107831D01*
X167076531Y-53952995D01*
X167169640Y-53813646D01*
X167288146Y-53695140D01*
X167427495Y-53602031D01*
X167582331Y-53537895D01*
X167746703Y-53505200D01*
X167914297Y-53505200D01*
X168078669Y-53537895D01*
G37*
G36*
X181381300Y-55206800D02*
G01*
X179679700Y-55206800D01*
X179679700Y-53505200D01*
X181381300Y-53505200D01*
X181381300Y-55206800D01*
G37*
G36*
X178238669Y-53537895D02*
G01*
X178393505Y-53602031D01*
X178532854Y-53695140D01*
X178651360Y-53813646D01*
X178744469Y-53952995D01*
X178808605Y-54107831D01*
X178841300Y-54272203D01*
X178841300Y-54439797D01*
X178808605Y-54604169D01*
X178744469Y-54759005D01*
X178651360Y-54898354D01*
X178532854Y-55016860D01*
X178393505Y-55109969D01*
X178238669Y-55174105D01*
X178074297Y-55206800D01*
X177906703Y-55206800D01*
X177742331Y-55174105D01*
X177587495Y-55109969D01*
X177448146Y-55016860D01*
X177329640Y-54898354D01*
X177236531Y-54759005D01*
X177172395Y-54604169D01*
X177139700Y-54439797D01*
X177139700Y-54272203D01*
X177172395Y-54107831D01*
X177236531Y-53952995D01*
X177329640Y-53813646D01*
X177448146Y-53695140D01*
X177587495Y-53602031D01*
X177742331Y-53537895D01*
X177906703Y-53505200D01*
X178074297Y-53505200D01*
X178238669Y-53537895D01*
G37*
G36*
X175698669Y-53537895D02*
G01*
X175853505Y-53602031D01*
X175992854Y-53695140D01*
X176111360Y-53813646D01*
X176204469Y-53952995D01*
X176268605Y-54107831D01*
X176301300Y-54272203D01*
X176301300Y-54439797D01*
X176268605Y-54604169D01*
X176204469Y-54759005D01*
X176111360Y-54898354D01*
X175992854Y-55016860D01*
X175853505Y-55109969D01*
X175698669Y-55174105D01*
X175534297Y-55206800D01*
X175366703Y-55206800D01*
X175202331Y-55174105D01*
X175047495Y-55109969D01*
X174908146Y-55016860D01*
X174789640Y-54898354D01*
X174696531Y-54759005D01*
X174632395Y-54604169D01*
X174599700Y-54439797D01*
X174599700Y-54272203D01*
X174632395Y-54107831D01*
X174696531Y-53952995D01*
X174789640Y-53813646D01*
X174908146Y-53695140D01*
X175047495Y-53602031D01*
X175202331Y-53537895D01*
X175366703Y-53505200D01*
X175534297Y-53505200D01*
X175698669Y-53537895D01*
G37*
G36*
X173158669Y-53537895D02*
G01*
X173313505Y-53602031D01*
X173452854Y-53695140D01*
X173571360Y-53813646D01*
X173664469Y-53952995D01*
X173728605Y-54107831D01*
X173761300Y-54272203D01*
X173761300Y-54439797D01*
X173728605Y-54604169D01*
X173664469Y-54759005D01*
X173571360Y-54898354D01*
X173452854Y-55016860D01*
X173313505Y-55109969D01*
X173158669Y-55174105D01*
X172994297Y-55206800D01*
X172826703Y-55206800D01*
X172662331Y-55174105D01*
X172507495Y-55109969D01*
X172368146Y-55016860D01*
X172249640Y-54898354D01*
X172156531Y-54759005D01*
X172092395Y-54604169D01*
X172059700Y-54439797D01*
X172059700Y-54272203D01*
X172092395Y-54107831D01*
X172156531Y-53952995D01*
X172249640Y-53813646D01*
X172368146Y-53695140D01*
X172507495Y-53602031D01*
X172662331Y-53537895D01*
X172826703Y-53505200D01*
X172994297Y-53505200D01*
X173158669Y-53537895D01*
G37*
G36*
X170618669Y-53537895D02*
G01*
X170773505Y-53602031D01*
X170912854Y-53695140D01*
X171031360Y-53813646D01*
X171124469Y-53952995D01*
X171188605Y-54107831D01*
X171221300Y-54272203D01*
X171221300Y-54439797D01*
X171188605Y-54604169D01*
X171124469Y-54759005D01*
X171031360Y-54898354D01*
X170912854Y-55016860D01*
X170773505Y-55109969D01*
X170618669Y-55174105D01*
X170454297Y-55206800D01*
X170286703Y-55206800D01*
X170122331Y-55174105D01*
X169967495Y-55109969D01*
X169828146Y-55016860D01*
X169709640Y-54898354D01*
X169616531Y-54759005D01*
X169552395Y-54604169D01*
X169519700Y-54439797D01*
X169519700Y-54272203D01*
X169552395Y-54107831D01*
X169616531Y-53952995D01*
X169709640Y-53813646D01*
X169828146Y-53695140D01*
X169967495Y-53602031D01*
X170122331Y-53537895D01*
X170286703Y-53505200D01*
X170454297Y-53505200D01*
X170618669Y-53537895D01*
G37*
M02*
