M48
; DRILL file {KiCad (5.1.6)-1} date 12/22/20 22:51:53
; FORMAT={-:-/ absolute / inch / decimal}
; #@! TF.CreationDate,2020-12-22T22:51:53+03:00
; #@! TF.GenerationSoftware,Kicad,Pcbnew,(5.1.6)-1
FMAT,2
INCH
T1C0.0118
T2C0.0236
T3C0.0315
T4C0.0350
T5C0.0394
T6C0.0618
T7C0.1260
T8C0.1280
%
G90
G05
T1
X5.3043Y-2.1282
X5.3043Y-2.453
X5.3043Y-2.7778
X5.3043Y-3.1026
X5.3043Y-3.4274
X5.3043Y-3.7522
X5.3043Y-4.077
X5.3043Y-4.4018
X5.4815Y-2.2758
X5.5996Y-2.0691
X5.5996Y-4.4313
X5.6291Y-2.5711
X5.6586Y-2.8664
X5.6882Y-3.1617
X5.7Y-4.12
X5.7393Y-4.4043
X5.7462Y-3.6263
X5.7472Y-2.3349
X5.7472Y-3.4274
X5.7518Y-4.4582
X5.7577Y-3.7897
X5.7768Y-4.2837
X5.7791Y-4.4809
X5.8121Y-4.5039
X5.8358Y-2.6892
X5.8358Y-3.8408
X5.8413Y-4.5267
X5.8653Y-2.1282
X5.8653Y-2.9845
X5.8686Y-4.5494
X5.9244Y-3.2502
X5.9244Y-3.575
X5.9539Y-2.453
X5.9684Y-4.5046
X6.0038Y-3.9751
X6.016Y-4.392
X6.0425Y-2.8073
X6.0578Y-4.5273
X6.072Y-2.2463
X6.1Y-4.368
X6.135Y-4.55
X6.16Y-4.3059
X6.16Y-4.344
X6.1678Y-4.2593
X6.202Y-4.316
X6.2197Y-2.0691
X6.2492Y-4.1065
X6.25Y-3.41
X6.2787Y-3.1912
X6.3082Y-2.3349
X6.3378Y-2.7778
X6.34Y-3.824
X6.3556Y-3.5706
X6.3601Y-4.0352
X6.3601Y-4.1835
X6.437Y-2.6145
X6.4559Y-2.1577
X6.4854Y-3.014
X6.4854Y-3.4274
X6.49Y-3.71
X6.5207Y-3.6083
X6.5289Y-3.3351
X6.5438Y-3.5827
X6.55Y-3.19
X6.55Y-4.49
X6.5545Y-3.318
X6.5675Y-3.5315
X6.57Y-4.216
X6.5801Y-3.3016
X6.5832Y-4.2945
X6.5906Y-3.5059
X6.6078Y-4.4658
X6.6375Y-4.5355
X6.6569Y-4.0274
X6.6751Y-3.0755
X6.7216Y-2.5416
X6.7512Y-2.0691
X6.785Y-3.18
X6.785Y-3.46
X6.8411Y-4.1885
X6.8477Y-4.4203
X6.8633Y-4.5127
X6.867Y-4.443
X6.9059Y-4.3293
X6.9283Y-3.014
X6.9385Y-4.0283
X6.9579Y-3.3093
X7.0464Y-2.5416
X7.05Y-3.2
X7.08Y-4.43
X7.1175Y-3.4575
X7.13Y-3.25
X7.1645Y-2.3349
X7.188Y-4.526
X7.2Y-4.43
X7.214Y-4.1885
X7.2236Y-2.0691
X7.2236Y-3.0435
X7.224Y-4.526
X7.23Y-3.245
X7.25Y-3.14
X7.258Y-4.494
X7.258Y-4.526
X7.285Y-3.3075
X7.3074Y-3.5826
X7.4008Y-2.2168
X7.41Y-4.05
X7.41Y-4.26
X7.41Y-4.45
X7.4598Y-2.4825
X7.4894Y-2.7778
X7.4894Y-3.6636
X7.495Y-4.0684
X7.5284Y-3.1488
X7.5484Y-3.0435
X7.564Y-3.208
X7.5779Y-2.0691
X7.599Y-3.1488
X7.6315Y-2.9945
X7.6486Y-3.6774
X7.6492Y-3.5657
X7.6665Y-2.6302
X7.68Y-3.88
X7.696Y-4.2837
X7.7015Y-3.5021
X7.7015Y-3.7411
X7.7069Y-2.9717
X7.75Y-2.2
X7.7551Y-2.8664
X7.7846Y-4.018
X7.79Y-3.16
X7.81Y-2.42
X7.8732Y-4.4313
X7.9027Y-3.0435
X7.92Y-3.35
X7.92Y-3.47
X7.9323Y-3.7522
X7.935Y-2.64
X7.94Y-2.1
X7.9561Y-2.9082
X7.9618Y-4.1656
X7.966Y-3.4083
X8.0152Y-2.8439
X8.0152Y-2.9735
X8.02Y-3.5742
X8.0208Y-3.2502
X8.06Y-2.42
X8.1094Y-3.9884
X8.1094Y-4.3428
X8.13Y-2.2
X8.1314Y-3.4076
X8.198Y-3.1026
X8.23Y-3.57
X8.2544Y-4.0028
X8.2571Y-3.7817
X8.26Y-2.63
X8.318Y-3.6304
X8.3192Y-2.8243
X8.3203Y-3.9319
X8.3203Y-4.0771
X8.4382Y-3.9319
X8.4382Y-4.0766
X8.5006Y-4.0037
X8.5378Y-2.1341
X8.5378Y-2.3821
X8.5378Y-4.1538
X8.5378Y-4.4018
X8.575Y-3.175
X8.6086Y-2.5093
X8.6318Y-3.0035
X8.6441Y-2.7219
X8.6661Y-3.3855
X8.6795Y-2.2404
X8.6795Y-4.0475
X8.6795Y-4.2955
X8.7024Y-2.9824
X8.7504Y-2.4176
X8.7504Y-4.4727
X8.8212Y-2.1341
X8.8212Y-3.9057
X8.8212Y-4.1538
X8.8921Y-2.3113
X8.8921Y-2.7719
X8.8921Y-4.3309
X8.9297Y-3.056
X8.963Y-4.012
X8.9984Y-2.453
X9.0338Y-2.6656
X9.0338Y-3.8349
X9.0338Y-4.1892
X9.1401Y-2.8073
X9.1401Y-3.6931
X9.1756Y-2.3821
X9.1756Y-3.9412
X9.211Y-2.5947
X9.2464Y-4.1183
T2
X5.35Y-4.516
X6.4474Y-4.0926
X8.291Y-4.5125
T3
X6.6075Y-2.625
X6.7075Y-2.625
X6.8075Y-2.625
X6.9075Y-2.625
X7.0075Y-2.625
X7.1075Y-2.625
X7.2075Y-2.625
X7.3075Y-2.625
X7.4075Y-2.625
X7.5075Y-2.625
X7.9529Y-4.2691
X7.9529Y-4.3478
X7.469Y-3.362
X7.6611Y-3.362
X6.6075Y-2.14
X6.7075Y-2.14
X6.8075Y-2.14
X6.9075Y-2.14
X7.0075Y-2.14
X7.1075Y-2.14
X5.546Y-2.49
X5.546Y-2.59
X5.546Y-2.69
X5.546Y-2.79
X5.546Y-2.89
X5.546Y-2.99
X5.546Y-3.09
X5.546Y-3.19
X5.546Y-3.29
X5.546Y-3.39
X5.546Y-3.49
X5.546Y-3.59
X5.546Y-3.69
X5.546Y-3.79
X5.546Y-3.89
X5.546Y-3.99
X6.146Y-2.49
X6.146Y-2.59
X6.146Y-2.69
X6.146Y-2.79
X6.146Y-2.89
X6.146Y-2.99
X6.146Y-3.09
X6.146Y-3.19
X6.146Y-3.29
X6.146Y-3.39
X6.146Y-3.49
X6.146Y-3.59
X6.146Y-3.69
X6.146Y-3.79
X6.146Y-3.89
X6.146Y-3.99
X5.55Y-4.2693
X5.55Y-4.348
X8.2Y-2.8084
X8.2Y-2.9084
X8.2Y-3.0084
X8.2Y-3.3084
X8.2Y-3.4084
X8.2Y-3.5084
X8.5Y-2.8084
X8.5Y-2.9084
X8.5Y-3.0084
X8.5Y-3.3084
X8.5Y-3.4084
X8.5Y-3.5084
T4
X8.8312Y-2.9641
X8.8312Y-3.0542
X8.8312Y-3.4141
X8.8312Y-3.5042
X9.0209Y-3.1342
X9.0209Y-3.2145
X9.0209Y-3.2948
X9.0209Y-3.3751
X9.091Y-3.094
X9.091Y-3.1743
X9.091Y-3.2546
X9.091Y-3.3349
T5
X7.207Y-2.777
X7.207Y-2.877
X6.8075Y-2.7775
X6.8075Y-2.8775
X6.8075Y-2.29
X6.8075Y-2.39
X7.307Y-2.777
X7.307Y-2.877
X7.0075Y-2.7775
X7.0075Y-2.8775
X6.6075Y-2.29
X6.6075Y-2.39
X6.2885Y-2.49
X6.2885Y-2.59
X6.2885Y-2.69
X8.4992Y-2.6286
X8.7945Y-2.6286
X6.7075Y-2.29
X6.7075Y-2.39
X6.3885Y-2.89
X6.3885Y-2.99
X6.3885Y-3.09
X7.0075Y-2.29
X7.0075Y-2.39
X8.4995Y-3.7375
X8.7948Y-3.7375
X6.2885Y-2.89
X6.2885Y-2.99
X6.2885Y-3.09
X6.9075Y-2.7775
X6.9075Y-2.8775
X7.107Y-2.777
X7.107Y-2.877
X7.407Y-2.777
X7.407Y-2.877
X6.9075Y-2.29
X6.9075Y-2.39
X6.7075Y-2.7775
X6.7075Y-2.8775
X6.6075Y-2.7775
X6.6075Y-2.8775
T6
X9.056Y-2.9141
X9.056Y-3.5542
T7
X9.153Y-2.2052
X9.153Y-4.4302
T8
X9.191Y-2.9842
X9.191Y-3.4842
T0
M30
