M48
; DRILL file {KiCad (5.1.6)-1} date 07/06/20 23:23:47
; FORMAT={-:-/ absolute / inch / decimal}
; #@! TF.CreationDate,2020-07-06T23:23:47+03:00
; #@! TF.GenerationSoftware,Kicad,Pcbnew,(5.1.6)-1
FMAT,2
INCH
T1C0.0118
T2C0.0236
T3C0.0315
T4C0.0350
T5C0.0394
T6C0.0618
T7C0.1260
T8C0.1280
%
G90
G05
T1
X5.3291Y-2.1014
X5.3291Y-2.3613
X5.3291Y-2.6211
X5.3291Y-2.881
X5.3291Y-3.1408
X5.3291Y-3.4007
X5.3291Y-3.6605
X5.3291Y-3.9203
X5.3291Y-4.1802
X5.459Y-2.2314
X5.459Y-2.4912
X5.459Y-2.7511
X5.459Y-3.0109
X5.459Y-3.2707
X5.459Y-3.5306
X5.589Y-2.1014
X5.589Y-2.3613
X5.6323Y-2.6644
X5.7187Y-3.4014
X5.7189Y-2.2314
X5.719Y-3.1416
X5.7202Y-2.8808
X5.7393Y-4.2347
X5.7393Y-4.4043
X5.7462Y-3.6863
X5.7518Y-4.4582
X5.7577Y-3.8497
X5.7622Y-2.5345
X5.7791Y-4.4809
X5.8121Y-4.5039
X5.8413Y-4.5267
X5.8484Y-3.531
X5.8488Y-2.1014
X5.8488Y-2.3613
X5.8686Y-4.5494
X5.8914Y-3.6995
X5.9354Y-2.6211
X5.9354Y-3.9203
X5.9684Y-4.5046
X5.9782Y-3.4001
X5.9786Y-3.1415
X5.9787Y-2.2314
X5.979Y-2.88
X6.0038Y-4.0351
X6.016Y-4.392
X6.0578Y-4.5273
X6.0653Y-2.4046
X6.1Y-4.368
X6.1086Y-2.1014
X6.135Y-4.55
X6.16Y-4.3059
X6.16Y-4.344
X6.1678Y-4.2593
X6.1953Y-2.2747
X6.202Y-4.316
X6.2468Y-3.4757
X6.2518Y-4.1075
X6.281Y-3.27
X6.2819Y-2.8377
X6.3252Y-2.1448
X6.3252Y-2.4046
X6.36Y-3.874
X6.3601Y-4.0352
X6.3601Y-4.1835
X6.3685Y-2.6644
X6.3907Y-3.7075
X6.405Y-3.61
X6.437Y-2.6745
X6.4551Y-2.2747
X6.5197Y-3.7619
X6.5207Y-3.6593
X6.5289Y-3.4251
X6.5417Y-2.1014
X6.5438Y-3.6337
X6.55Y-4.49
X6.5545Y-3.408
X6.5675Y-3.5825
X6.57Y-4.216
X6.5801Y-3.3916
X6.5808Y-3.27
X6.5832Y-4.2945
X6.5906Y-3.5569
X6.6078Y-4.4658
X6.6375Y-4.5355
X6.6525Y-3.3419
X6.6569Y-4.0624
X6.6751Y-3.0755
X6.7149Y-2.6644
X6.7582Y-2.1448
X6.7791Y-3.0751
X6.7851Y-3.5479
X6.8Y-3.27
X6.8411Y-4.1885
X6.8477Y-4.4203
X6.8633Y-4.5127
X6.867Y-4.443
X6.8941Y-3.1616
X6.9059Y-4.3293
X6.9315Y-2.6211
X6.9387Y-4.0623
X6.9471Y-3.4133
X6.9748Y-2.1014
X7.0288Y-3.0759
X7.0362Y-3.4135
X7.0523Y-3.241
X7.0801Y-4.4277
X7.118Y-3.548
X7.135Y-3.3262
X7.148Y-2.6644
X7.1551Y-3.1382
X7.188Y-4.526
X7.214Y-4.1885
X7.215Y-3.3263
X7.224Y-4.526
X7.2529Y-3.2039
X7.258Y-4.494
X7.258Y-4.526
X7.2674Y-3.3878
X7.2783Y-3.6334
X7.2835Y-2.3622
X7.4106Y-4.1931
X7.411Y-4.4922
X7.4111Y-4.0572
X7.4159Y-3.7272
X7.4803Y-2.1654
X7.4803Y-2.5591
X7.4945Y-2.881
X7.5284Y-3.2038
X7.5464Y-3.6078
X7.564Y-3.263
X7.599Y-3.2038
X7.6244Y-3.877
X7.6315Y-3.0695
X7.6486Y-3.7274
X7.6492Y-3.6157
X7.6772Y-2.3622
X7.7015Y-3.5521
X7.7015Y-3.7911
X7.7069Y-3.0467
X7.711Y-4.2668
X7.7543Y-3.2274
X7.7543Y-4.007
X7.7976Y-2.881
X7.8142Y-3.3664
X7.8409Y-3.5306
X7.874Y-2.1654
X7.874Y-2.5591
X7.8842Y-3.0542
X7.8842Y-4.1369
X7.8842Y-4.44
X7.9302Y-3.3664
X7.9561Y-2.9582
X7.966Y-3.4583
X8.0152Y-2.8939
X8.0152Y-3.0235
X8.0643Y-3.6242
X8.0643Y-3.7299
X8.0709Y-2.3622
X8.1008Y-3.0975
X8.1314Y-3.4576
X8.1441Y-4.1802
X8.1874Y-4.3967
X8.2307Y-3.2274
X8.2544Y-4.0028
X8.2677Y-2.1654
X8.2677Y-2.5591
X8.318Y-3.6804
X8.3192Y-2.8743
X8.3203Y-3.9319
X8.3203Y-4.0771
X8.4382Y-3.9319
X8.4382Y-4.0766
X8.5006Y-4.0037
X8.5378Y-2.1341
X8.5378Y-2.3821
X8.5378Y-4.1538
X8.5378Y-4.4018
X8.5715Y-3.2311
X8.6086Y-2.5593
X8.6318Y-3.0535
X8.6441Y-2.7719
X8.6661Y-3.4355
X8.6795Y-2.2404
X8.6795Y-4.0475
X8.6795Y-4.2955
X8.7024Y-2.9824
X8.7504Y-2.4176
X8.7504Y-4.4727
X8.8212Y-2.1341
X8.8212Y-3.9057
X8.8212Y-4.1538
X8.8567Y-2.5593
X8.885Y-3.2314
X8.8921Y-2.3113
X8.8921Y-2.7719
X8.8921Y-4.3309
X8.9297Y-3.056
X8.963Y-4.012
X8.9984Y-2.453
X9.0338Y-2.6656
X9.0338Y-3.8349
X9.0338Y-4.1892
X9.1401Y-2.8073
X9.1401Y-3.6931
X9.1756Y-2.3821
X9.1756Y-3.9412
X9.211Y-2.5947
X9.2464Y-4.1183
T2
X5.35Y-4.516
X6.4474Y-4.0926
X8.291Y-4.5125
T3
X7.9529Y-4.2691
X7.9529Y-4.3478
X8.2Y-2.8584
X8.2Y-2.9584
X8.2Y-3.0584
X8.2Y-3.3584
X8.2Y-3.4584
X8.2Y-3.5584
X8.5Y-2.8584
X8.5Y-2.9584
X8.5Y-3.0584
X8.5Y-3.3584
X8.5Y-3.4584
X8.5Y-3.5584
X5.546Y-2.55
X5.546Y-2.65
X5.546Y-2.75
X5.546Y-2.85
X5.546Y-2.95
X5.546Y-3.05
X5.546Y-3.15
X5.546Y-3.25
X5.546Y-3.35
X5.546Y-3.45
X5.546Y-3.55
X5.546Y-3.65
X5.546Y-3.75
X5.546Y-3.85
X5.546Y-3.95
X5.546Y-4.05
X6.146Y-2.55
X6.146Y-2.65
X6.146Y-2.75
X6.146Y-2.85
X6.146Y-2.95
X6.146Y-3.05
X6.146Y-3.15
X6.146Y-3.25
X6.146Y-3.35
X6.146Y-3.45
X6.146Y-3.55
X6.146Y-3.65
X6.146Y-3.75
X6.146Y-3.85
X6.146Y-3.95
X6.146Y-4.05
X5.55Y-4.2693
X5.55Y-4.348
X6.6075Y-2.24
X6.7075Y-2.24
X6.8075Y-2.24
X6.9075Y-2.24
X7.0075Y-2.24
X7.1075Y-2.24
X7.469Y-3.417
X7.6611Y-3.417
X6.6075Y-2.75
X6.7075Y-2.75
X6.8075Y-2.75
X6.9075Y-2.75
X7.0075Y-2.75
X7.1075Y-2.75
X7.2075Y-2.75
X7.3075Y-2.75
X7.4075Y-2.75
X7.5075Y-2.75
T4
X8.8312Y-2.9641
X8.8312Y-3.0542
X8.8312Y-3.4141
X8.8312Y-3.5042
X9.0209Y-3.1342
X9.0209Y-3.2145
X9.0209Y-3.2948
X9.0209Y-3.3751
X9.091Y-3.094
X9.091Y-3.1743
X9.091Y-3.2546
X9.091Y-3.3349
T5
X6.6075Y-2.39
X6.6075Y-2.49
X6.2885Y-2.95
X6.2885Y-3.05
X6.2885Y-3.15
X7.207Y-2.902
X7.207Y-3.002
X7.407Y-2.902
X7.407Y-3.002
X6.9075Y-2.9025
X6.9075Y-3.0025
X6.8075Y-2.39
X6.8075Y-2.49
X7.0075Y-2.9025
X7.0075Y-3.0025
X6.9075Y-2.39
X6.9075Y-2.49
X6.7075Y-2.39
X6.7075Y-2.49
X8.4995Y-3.7375
X8.7948Y-3.7375
X7.0075Y-2.39
X7.0075Y-2.49
X6.3885Y-2.95
X6.3885Y-3.05
X6.3885Y-3.15
X6.6075Y-2.9025
X6.6075Y-3.0025
X6.7075Y-2.9025
X6.7075Y-3.0025
X7.307Y-2.902
X7.307Y-3.002
X8.4992Y-2.6786
X8.7945Y-2.6786
X6.8075Y-2.9025
X6.8075Y-3.0025
X6.2885Y-2.55
X6.2885Y-2.65
X6.2885Y-2.75
X7.107Y-2.902
X7.107Y-3.002
T6
X9.056Y-2.9141
X9.056Y-3.5542
T7
X9.165Y-2.2
X9.165Y-4.425
T8
X9.191Y-2.9842
X9.191Y-3.4842
T0
M30
